<?xml version="1.0" encoding="UTF-8"?>
<svg width="306px" height="109px" viewBox="0 0 306 109" version="1.1" xmlns="http://www.w3.org/2000/svg" xmlns:xlink="http://www.w3.org/1999/xlink">
    <!-- Generator: Sketch 49.1 (51147) - http://www.bohemiancoding.com/sketch -->
    <title>got copy</title>
    <desc>Created with Sketch.</desc>
    <defs></defs>
    <g id="Page-1" stroke="none" stroke-width="1" fill="none" fill-rule="evenodd">
        <g id="New-Hotspot-tulum" transform="translate(-568.000000, -57.000000)" fill="#FFFFFE" fill-rule="nonzero">
            <g id="got-copy" transform="translate(568.000000, 57.000000)">
                <path d="M110.779208,10.566916 L117.193775,10.566916 L117.193775,18.6690807 C114.838757,19.6906703 112.503493,20.2042872 110.187984,20.2042872 C107.017388,20.2042872 104.490224,19.280059 102.603669,17.4231366 C100.707238,15.5789134 99.7632553,13.3057355 99.7632553,10.5993698 C99.7632553,7.73779021 100.742514,5.36583986 102.702442,3.46658633 C104.663781,1.57015488 107.121804,0.626172259 110.075101,0.626172259 C111.151721,0.626172259 112.1719,0.736233013 113.145514,0.963409698 C114.10784,1.20469674 115.33403,1.62941836 116.80574,2.25168493 L116.80574,5.0398907 C114.524096,3.71775062 112.262206,3.05597506 110.025715,3.05597506 C107.935972,3.05597506 106.173589,3.76854789 104.737155,5.18804941 C103.306365,6.610373 102.598025,8.36287885 102.598025,10.4328676 C102.598025,12.6016289 103.306365,14.3724782 104.737155,15.7510597 C106.173589,17.1324633 108.016401,17.8182265 110.272646,17.8182265 C111.363377,17.8182265 112.671406,17.5712953 114.198147,17.0647336 L114.457777,16.9843046 L114.457777,12.9967188 L110.779208,12.9967188 L110.779208,10.566916 Z" id="Fill-2"></path>
                <path d="M128.191243,3.18917679 L127.371431,3.18917679 L127.371431,9.22276377 L128.407131,9.22276377 C129.794179,9.22276377 130.743805,9.10846991 131.261655,8.86718287 C131.779505,8.63153998 132.180239,8.27454804 132.470913,7.80044018 C132.75312,7.32068817 132.895634,6.77320647 132.895634,6.16081715 C132.895634,5.56394922 132.733365,5.01505648 132.421526,4.52683826 C132.101221,4.04003108 131.648279,3.68868329 131.069755,3.49960456 C130.49123,3.29359341 129.528904,3.18917679 128.191243,3.18917679 Z M124.635434,19.981908 L124.635434,0.872256817 L129.424487,0.872256817 C131.354784,0.872256817 132.887168,1.34636468 134.02164,2.30869076 C135.161757,3.25831752 135.730404,4.55788104 135.730404,6.18621579 C135.730404,7.30234472 135.45243,8.2646708 134.899304,9.0760161 C134.337712,9.89018347 133.541888,10.4955176 132.500544,10.8962516 C133.111523,11.2969857 133.709802,11.8444674 134.29397,12.5358747 C134.872495,13.2315151 135.699361,14.4379503 136.751994,16.1650575 C137.419414,17.2501436 137.955607,18.064311 138.356341,18.6132037 L139.373697,19.981908 L136.111384,19.981908 L135.280284,18.7176204 C135.250652,18.6795224 135.201266,18.5990934 135.113782,18.4904437 L134.584644,17.7369508 L133.732378,16.3372038 L132.820849,14.8471505 C132.253613,14.0626149 131.735763,13.4347042 131.2673,12.9789398 C130.798836,12.510476 130.372703,12.1760607 129.991724,11.9742826 C129.616388,11.7654494 128.975778,11.6666769 128.081182,11.6666769 L127.371431,11.6666769 L127.371431,19.981908 L124.635434,19.981908 Z" id="Fill-4"></path>
                <path d="M154.951245,11.8745224 L151.869544,4.95762734 L149.013608,11.8745224 L154.951245,11.8745224 Z M150.931205,0.761208338 L152.862913,0.761208338 L161.429308,19.9823313 L158.629814,19.9823313 L156.077251,14.3170245 L147.922878,14.3170245 L145.542462,19.9823313 L142.731679,19.9823313 L150.931205,0.761208338 Z" id="Fill-6"></path>
                <polygon id="Fill-8" points="182.073742 0.867318193 184.670047 0.867318193 184.670047 19.9812025 182.320674 19.9812025 169.536694 5.26269318 169.536694 19.9812025 166.964376 19.9812025 166.964376 0.867318193 169.182524 0.867318193 182.073742 15.7099986"></polygon>
                <path d="M198.317158,3.30220072 L194.895397,3.30220072 L194.895397,17.5226146 L198.396176,17.5226146 C199.76488,17.5226146 200.823156,17.4294862 201.582293,17.2319413 C202.335786,17.0485067 202.969341,16.8128638 203.482958,16.5306567 C203.981053,16.2385724 204.441051,15.8886357 204.861539,15.4695582 C206.218955,14.1008539 206.890608,12.3681026 206.890608,10.2840034 C206.890608,8.23094705 206.199201,6.55604814 204.812153,5.26212876 C204.301358,4.77955469 203.715779,4.37882066 203.04977,4.072626 C202.396461,3.76219823 201.760084,3.55477604 201.16886,3.45459253 C200.576225,3.35158696 199.622365,3.30220072 198.317158,3.30220072 Z M192.156577,19.9566505 L192.156577,0.87239792 L198.599365,0.87239792 C201.201314,0.87239792 203.251548,1.25902159 204.771233,2.03791308 C206.286685,2.8139825 207.487476,3.95974317 208.380661,5.48366131 C209.275258,6.99205805 209.719734,8.64579143 209.719734,10.4321621 C209.719734,11.7077381 209.472803,12.9296946 208.987407,14.1008539 C208.493544,15.2663691 207.789438,16.2893697 206.876498,17.1769109 C205.946625,18.0954949 204.861539,18.7727918 203.631117,19.2412556 C202.914311,19.5319288 202.248302,19.7153634 201.644379,19.8141359 C201.047511,19.9072642 199.898928,19.9566505 198.204275,19.9566505 L192.156577,19.9566505 Z" id="Fill-10"></path>
                <polygon id="Fill-12" points="301.893217 41.0545958 290.685363 54.7458714 279.442234 41.0785834 279.42389 41.0545958 276.20673 41.0545958 276.20673 72.4529535 279.732907 72.4529535 279.732907 46.7269578 290.211255 59.5603239 290.674075 60.1332042 301.577145 46.7311909 301.577145 72.4529535 305.117432 72.4529535 305.117432 41.0545958"></polygon>
                <polygon id="Fill-14" points="165.448642 44.1660698 176.7849 44.1660698 176.7849 72.4319291 180.322365 72.4319291 180.322365 44.1660698 191.652979 44.1660698 191.652979 41.0293383 165.448642 41.0293383"></polygon>
                <path d="M216.992774,58.1724296 C216.992774,61.7536372 216.093945,64.5517202 214.311807,66.4693172 C212.535314,68.3784479 210.183118,69.3478292 207.320127,69.3478292 C204.491001,69.3478292 202.161382,68.3840921 200.382067,66.4975379 C198.599929,64.6025175 197.692633,61.906029 197.692633,58.4885015 L197.692633,41.0354057 L194.166456,41.0354057 L194.166456,58.5788077 C194.166456,62.906453 195.394057,66.3775999 197.835148,68.8920648 C200.274828,71.4121739 203.473645,72.6891608 207.320127,72.6891608 C211.186364,72.6891608 214.385181,71.3952414 216.833327,68.8469117 C219.278651,66.304226 220.513307,62.666577 220.513307,58.0355591 L220.513307,41.0354057 L216.992774,41.0354057 L216.992774,58.1724296 Z" id="Fill-16"></path>
                <path d="M268.407373,58.2164539 C268.407373,61.7962504 267.5029,64.5915114 265.715118,66.5119304 C263.938624,68.4224722 261.583607,69.3904425 258.724849,69.3904425 C255.890079,69.3904425 253.559049,68.4337605 251.782555,66.5472063 C250.000418,64.6451307 249.095944,61.9458202 249.095944,58.5297037 L249.095944,41.0836632 L245.565534,41.0836632 L245.565534,58.621421 C245.565534,62.9434221 246.795957,66.414569 249.232814,68.9360891 C251.67955,71.4561982 254.878367,72.7331851 258.724849,72.7331851 C262.595319,72.7331851 265.79978,71.4392657 268.243693,68.890936 C270.683373,66.3510724 271.916618,62.7106013 271.916618,58.0795834 L271.916618,41.0836632 L268.407373,41.0836632 L268.407373,58.2164539 Z" id="Fill-18"></path>
                <polygon id="Fill-20" points="228.994758 41.0243997 225.49398 41.0243997 225.49398 72.3818373 243.926334 72.3818373 243.926334 69.2620383 228.994758 69.2620383"></polygon>
                <path d="M28.36247,55.3737821 C28.8238785,55.1663599 29.1766374,54.8940301 29.4785989,54.5793693 C32.5405455,51.2606142 27.2886721,48.3214277 28.9790924,45.0435926 C30.4578574,42.4416435 32.9356354,43.1923143 33.4040992,43.3842151 C32.5603,43.8343354 31.6036181,44.5497303 31.3566869,46.0115629 C30.9841736,48.6050458 34.0701078,50.9163216 32.7719553,53.609988 C32.3923868,54.5342161 30.9841736,56.207704 28.36247,55.3737821" id="Fill-22"></path>
                <path d="M37.3109737,55.3737821 C37.7695602,55.1663599 38.1251411,54.8940301 38.4214585,54.5793693 C41.4975155,51.2606142 36.2343538,48.3214277 37.9177189,45.0435926 C39.3950729,42.4416435 41.8813171,43.1923143 42.3554249,43.3842151 C41.5116258,43.8343354 40.5492997,44.5497303 40.3023686,46.0115629 C39.9312663,48.6050458 43.0214336,50.9163216 41.7204591,53.609988 C41.3380685,54.5342161 39.9270332,56.207704 37.3109737,55.3737821" id="Fill-24"></path>
                <path d="M32.8367219,55.3737821 C33.2868421,55.1663599 33.6508892,54.8940301 33.9472066,54.5793693 C37.0176195,51.2606142 31.7657461,48.3214277 33.440645,45.0435926 C34.9335203,42.4416435 37.398599,43.1923143 37.8811731,43.3842151 C37.037374,43.8343354 36.0750479,44.5497303 35.8281167,46.0115629 C35.4626586,48.6050458 38.5401266,50.9163216 37.2462072,53.609988 C36.8624056,54.5342161 35.4570144,56.207704 32.8367219,55.3737821" id="Fill-26"></path>
                <path d="M24.7743483,61.599411 C25.1877817,61.8957284 25.5941598,62.0735189 26.0273477,62.1722914 C30.4269558,63.1698933 30.3479378,57.1504167 34.0265068,56.96416 C37.0179017,56.9472276 37.6020703,59.4659256 37.6839103,59.9710763 C36.8753871,59.4659256 35.7649023,58.9974619 34.3834988,59.5153119 C31.9438187,60.4889262 31.4880543,64.3198871 28.5107698,64.5414196 C27.5131678,64.6811121 25.361339,64.2944885 24.7743483,61.599411" id="Fill-28"></path>
                <path d="M29.2512811,69.3560132 C29.6520152,69.6382203 30.0710927,69.8103666 30.4901701,69.9147832 C34.9095327,70.9264955 34.8220485,64.8985527 38.4949734,64.710885 C41.4863683,64.6995967 42.0761811,67.2140616 42.152377,67.7276785 C41.3382096,67.2140616 40.2333689,66.7441869 38.8547874,67.2648589 C36.4179295,68.2398843 35.9621651,72.0609679 32.9848806,72.2825004 C31.9929227,72.4179598 29.8241615,72.0355693 29.2512811,69.3560132" id="Fill-30"></path>
                <path d="M27.0142258,65.4756661 C27.4206039,65.7663394 27.8382704,65.9398967 28.2531148,66.0429023 C32.6640111,67.0546146 32.5849932,61.0266718 36.2635622,60.8404151 C39.2549571,60.8234827 39.8475919,63.3421807 39.9167326,63.8515645 C39.1067984,63.3421807 38.0019577,62.8680729 36.61491,63.3816897 C34.1808741,64.3609482 33.7194655,68.1961422 30.7478252,68.4120306 C29.7502232,68.54749 27.5927502,68.1650994 27.0142258,65.4756661" id="Fill-32"></path>
                <path d="M17.5937307,61.593908 C17.5387004,62.0934145 17.5993749,62.5421237 17.7164908,62.9569681 C19.0555633,67.270503 24.2255967,64.1873909 26.2306779,67.2761472 C27.7404856,69.865397 25.8468763,71.6418904 25.4461422,71.9551402 C25.4842402,70.9998693 25.3417256,69.8047224 24.2016091,68.866384 C22.1316203,67.2394602 18.5969768,68.7633784 16.9093786,66.2898335 C16.2941672,65.4954206 15.5547847,63.4423642 17.5937307,61.593908" id="Fill-34"></path>
                <path d="M13.1063562,69.3421851 C13.0710804,69.8360474 13.1246997,70.2791125 13.2404046,70.7038341 C14.5780661,75.0244242 19.7565657,71.9300238 21.7560027,75.0300684 C23.2629884,77.6207292 21.3820783,79.3831123 20.9771112,79.6963622 C21.009565,78.7425023 20.8670504,77.5515885 19.7269339,76.614661 C17.6597672,74.9891484 14.1237127,76.5102444 12.4403476,74.0381106 C11.8223141,73.2493418 11.0772875,71.1849972 13.1063562,69.3421851" id="Fill-36"></path>
                <path d="M15.3510312,65.4701631 C15.301645,65.9654365 15.3566754,66.4141457 15.4780244,66.8191128 C16.822741,71.143936 21.9941854,68.0678791 23.9936225,71.1594574 C25.5006082,73.741652 23.614054,75.5125014 23.214731,75.8342174 C23.2471848,74.8775355 23.1103144,73.6809775 21.9645537,72.7440501 C19.8917428,71.1185374 16.3542773,72.6396335 14.6822005,70.1674996 C14.062756,69.3674426 13.3177293,67.307331 15.3510312,65.4701631" id="Fill-38"></path>
                <path d="M13.9944619,55.3737821 C13.5415195,55.5812043 13.1802945,55.8563562 12.8839771,56.168195 C9.80792011,59.4911832 15.0724928,62.4303697 13.3961829,65.7025606 C11.9103627,68.3059207 9.43258472,67.5538389 8.95283272,67.356294 C9.79663183,66.9132289 10.76178,66.1921898 11.003067,64.7444676 C11.3741693,62.1368744 8.29105716,59.8368868 9.58497653,57.1502756 C9.9673671,56.2133481 11.3812245,54.5398603 13.9944619,55.3737821" id="Fill-40"></path>
                <path d="M5.04878023,55.3737821 C4.59865996,55.5812043 4.22896871,55.8563562 3.9326513,56.168195 C0.865060537,59.4911832 6.12398913,62.4303697 4.45050125,65.7025606 C2.96468108,68.3059207 0.481258933,67.5538389 0.00715106942,67.356294 C0.850950184,66.9132289 1.8146873,66.1921898 2.0545633,64.7444676 C2.43554283,62.1368744 -0.646158278,59.8368868 0.642116958,57.1502756 C1.02450753,56.2133481 2.43554283,54.5398603 5.04878023,55.3737821" id="Fill-42"></path>
                <path d="M9.51752905,55.3737821 C9.06740878,55.5812043 8.71182788,55.8563562 8.41551047,56.168195 C5.3394535,59.4911832 10.5983821,62.4303697 8.91501697,65.7025606 C7.42919679,68.3059207 4.95565189,67.5538389 4.4843661,67.356294 C5.32816522,66.9132289 6.28766923,66.1921898 6.52895626,64.7444676 C6.90429166,62.1368744 3.81412433,59.8368868 5.11650992,57.1502756 C5.50595566,56.2133481 6.9099358,54.5398603 9.51752905,55.3737821" id="Fill-44"></path>
                <path d="M17.5992338,49.1474477 C17.1928556,48.8652407 16.7794223,48.6832171 16.3547006,48.5886778 C11.9466263,47.5826096 12.0341105,53.6049083 8.35554147,53.7897539 C5.35850248,53.8137415 4.76586765,51.2865773 4.69813795,50.7757825 C5.50666118,51.2865773 6.60303562,51.755041 7.99008332,51.23578 C10.4382296,50.2635767 10.8883498,46.442493 13.8656343,46.2195495 C14.8632363,46.0855011 17.0122431,46.4664806 17.5992338,49.1474477" id="Fill-46"></path>
                <path d="M13.130485,41.3998762 C12.7241068,41.1176691 12.3064403,40.9370566 11.8859518,40.8425172 C7.47787751,39.835038 7.55971756,45.8545146 3.8726823,46.0464154 C0.881287443,46.0605258 0.297118825,43.5390057 0.223744989,43.0338551 C1.02944615,43.5390057 2.13993094,44.0131136 3.5213345,43.4882084 C5.96101455,42.5160051 6.41113481,38.6935104 9.38841931,38.4719779 C10.3888433,38.3294633 12.5392612,38.7189091 13.130485,41.3998762" id="Fill-48"></path>
                <path d="M15.3621784,45.2759902 C14.9572113,44.988139 14.5353117,44.8131706 14.1232894,44.7143981 C9.70957095,43.711152 9.78858893,49.7334507 6.11001988,49.9126522 C3.11862503,49.9309956 2.53445641,47.4094755 2.45967154,46.909969 C3.26113959,47.4094755 4.37162438,47.8892275 5.75020588,47.3643224 C8.19835214,46.3921191 8.6484724,42.5597472 11.6342231,42.3424478 C12.6261809,42.2055773 14.7808318,42.5950231 15.3621784,45.2759902" id="Fill-50"></path>
                <path d="M24.7743483,49.1474477 C24.8237345,48.6535854 24.7687042,48.2048761 24.6515882,47.798498 C23.3125157,43.4779079 18.1311941,46.5539648 16.1374012,43.4637975 C14.6275934,40.8759588 16.5141476,39.1135757 16.9134706,38.7932706 C16.8781947,39.7513636 17.0207093,40.9422774 18.1608258,41.8792049 C20.2308146,43.5033065 23.762636,41.9920877 25.4516453,44.4515222 C26.0626235,45.2515792 26.8076502,47.3046356 24.7743483,49.1474477" id="Fill-52"></path>
                <path d="M29.2512811,41.3998762 C29.3006674,40.911658 29.2371708,40.4573046 29.1144107,40.0481043 C27.7767492,35.7275142 22.6053048,38.8176816 20.6072788,35.7162259 C19.0904159,33.1340313 20.9826142,31.3575379 21.3819372,31.0456991 C21.3607717,31.9995589 21.5004642,33.1947059 22.6363476,34.1316333 C24.7049254,35.7529129 28.2395688,34.2304058 29.9229339,36.7039507 C30.5395564,37.4983635 31.284583,39.5570641 29.2512811,41.3998762" id="Fill-54"></path>
                <path d="M27.0197288,45.2759902 C27.0550047,44.7821278 27.0056184,44.3334186 26.8828584,43.9270404 C25.54943,39.5993951 20.3681084,42.6825073 18.3700824,39.593751 C16.8588635,37.0045012 18.7510619,35.2336519 19.154618,34.9161689 C19.115109,35.8700288 19.2632677,37.0595316 20.3991511,38.0035142 C22.4677289,39.6318489 26.0023723,38.1065198 27.6913816,40.5744205 C28.308004,41.3744775 29.0473865,43.4275339 27.0197288,45.2759902" id="Fill-56"></path>
                <path d="M74.648379,65.8270139 C72.2143431,68.2511726 69.1820282,69.4844174 65.6516179,69.4844174 C62.0873427,69.4844174 59.0409175,68.2511726 56.5758388,65.8270139 C54.1220484,63.4113215 52.8718711,60.4100494 52.8718711,56.8838721 C52.8718711,53.3591059 54.1220484,50.3423124 56.5758388,47.9223869 C59.0465616,45.4982282 62.0929868,44.2734496 65.6516179,44.2734496 C69.1820282,44.2734496 72.208699,45.4982282 74.648379,47.9223869 C77.0781818,50.3366683 78.3114267,53.3591059 78.3114267,56.8838721 C78.3114267,60.4100494 77.0781818,63.4169656 74.648379,65.8270139 M77.165666,45.6223993 C74.0021248,42.5646858 70.1006122,41.0181911 65.5570785,41.0181911 C61.0318883,41.0181911 57.143075,42.57033 53.9992883,45.6280435 C50.8484465,48.6914011 49.2525655,52.4757978 49.2525655,56.8838721 C49.2525655,61.2834802 50.8484465,65.0650548 53.9936442,68.1213573 C57.1374308,71.184715 61.0318883,72.7340317 65.5570785,72.7340317 C70.1006122,72.7340317 74.00918,71.184715 77.165666,68.1213573 C80.3263851,65.070699 81.9307322,61.2919464 81.9307322,56.8838721 C81.9307322,52.4757978 80.3263851,48.6843459 77.165666,45.6223993" id="Fill-58"></path>
                <path d="M126.609331,56.8206577 C125.553876,56.2421333 123.905787,55.5323825 121.570524,54.6533075 C119.42575,53.8377291 118.000604,53.0080403 117.352939,52.1684743 C116.733495,51.3430187 116.410368,50.4060912 116.410368,49.3830906 C116.410368,47.957945 116.953616,46.7317553 118.038702,45.7651961 C119.1252,44.7718272 120.506603,44.2723207 122.157515,44.2723207 C123.900143,44.2723207 126.047739,45.0102922 128.545271,46.4664806 L129.30723,46.9405885 L129.394715,46.9956189 L129.394715,43.1519587 L129.104041,42.9600579 C126.749023,41.6717827 124.338975,41.0184733 121.934571,41.0184733 C119.437038,41.0184733 117.268277,41.843929 115.494606,43.483552 C113.699769,45.123175 112.799528,47.1437776 112.799528,49.4875072 C112.799528,51.1765165 113.174864,52.593196 113.926946,53.6839262 C114.656451,54.7450248 115.575035,55.5902349 116.641777,56.1744036 C117.649257,56.7232963 119.332622,57.4570347 121.64672,58.3389317 C123.846524,59.189786 125.306945,60.0886155 125.989886,61.0071995 C126.664361,61.9201393 127.010065,62.9628944 127.010065,64.103011 C127.010065,65.6057636 126.452706,66.8883947 125.370442,67.9099842 C124.259957,68.9470952 122.877143,69.4762334 121.274206,69.4762334 C119.279002,69.4762334 116.860488,68.4419445 114.093448,66.4142868 L113.284924,65.8018975 L113.200262,65.7299347 L113.200262,69.6441466 L113.244004,69.8797895 L113.244004,69.9080102 L113.452838,70.0378255 C116.146504,71.8199631 118.823238,72.7329029 121.405433,72.7329029 C123.96364,72.7329029 126.156389,71.8806376 127.932882,70.2156159 C129.720664,68.5336618 130.625137,66.4382744 130.625137,63.9985944 C130.625137,62.1614264 130.23287,60.6431524 129.455389,59.4804593 C128.670853,58.3205883 127.716994,57.4330471 126.609331,56.8206577" id="Fill-60"></path>
                <polygon id="Fill-62" points="134.323884 72.3537577 137.751289 72.3537577 137.751289 41.4041093 134.323884 41.4041093"></polygon>
                <path d="M154.748761,56.8206577 C153.687663,56.2477774 152.04804,55.5323825 149.709954,54.6533075 C147.565181,53.8433732 146.142857,53.0080403 145.500836,52.1684743 C144.872925,51.3430187 144.558264,50.4060912 144.558264,49.3830906 C144.558264,47.957945 145.093047,46.7317553 146.178133,45.7651961 C147.263219,44.7718272 148.646034,44.2723207 150.28989,44.2723207 C152.04804,44.2723207 154.191402,45.0102922 156.676236,46.4721248 L157.452305,46.9405885 L157.534145,46.9899747 L157.534145,43.1519587 L157.243472,42.9600579 C154.888454,41.6717827 152.478406,41.0184733 150.074001,41.0184733 C147.576469,41.0184733 145.402064,41.843929 143.62557,43.483552 C141.839199,45.123175 140.938959,47.1437776 140.938959,49.4875072 C140.938959,51.1821606 141.314294,52.5988401 142.066376,53.6839262 C142.800114,54.7506689 143.705999,55.5902349 144.779797,56.1744036 C145.783043,56.7232963 147.477696,57.4570347 149.797439,58.3389317 C151.984543,59.189786 153.446376,60.0886155 154.136372,61.0071995 C154.808025,61.9144952 155.148084,62.9572503 155.148084,64.103011 C155.148084,65.6057636 154.592137,66.8883947 153.495762,67.9099842 C152.390921,68.9470952 151.016573,69.4762334 149.413637,69.4762334 C147.417022,69.4762334 145.002741,68.4419445 142.232878,66.4086427 L141.427177,65.8103637 L141.334049,65.7468671 L141.334049,69.6441466 L141.397545,69.9080102 L141.586624,70.0378255 C144.285935,71.8199631 146.962669,72.7329029 149.544863,72.7329029 C152.097426,72.7329029 154.295819,71.8806376 156.077957,70.2156159 C157.865738,68.5280177 158.773034,66.4382744 158.773034,63.9985944 C158.773034,62.1727147 158.377944,60.6516186 157.589176,59.4804593 C156.81875,58.3389317 155.862068,57.4372802 154.748761,56.8206577" id="Fill-64"></path>
                <polygon id="Fill-65" points="96.6874806 39.1378455 96.6380943 39.0249626 81.7375615 71.4928851 81.3735144 72.250611 81.3325944 72.3239849 85.036562 72.3239849 96.6112847 46.9592142 108.125333 72.0770537 108.238216 72.2985862 108.250915 72.3239849 111.916785 72.3239849 97.8007874 41.5676483"></polygon>
                <polygon id="Fill-66" points="81.449287 94.3211823 88.8812099 94.3211823 88.8812099 96.1004978 83.4374357 96.1004978 83.4374357 99.9907222 88.8812099 99.9907222 88.8812099 101.764394 83.4374357 101.764394 83.4374357 108.267855 81.449287 108.267855"></polygon>
                <path d="M97.6692789,102.356041 L95.4243218,97.3073563 L93.3374006,102.356041 L97.6692789,102.356041 Z M94.7385586,94.2383545 L96.1425387,94.2383545 L102.390603,108.266868 L100.350246,108.266868 L98.4947346,104.133945 L92.5415766,104.133945 L90.798948,108.266868 L88.7487137,108.266868 L94.7385586,94.2383545 Z" id="Fill-67"></path>
                <polygon id="Fill-68" points="115.301717 94.3211823 117.160051 94.3211823 117.160051 108.267855 115.159203 108.267855 115.159203 97.4155828 110.871066 102.802916 110.504197 102.802916 106.168086 97.4155828 106.168086 108.267855 104.165827 108.267855 104.165827 94.3211823 106.053792 94.3211823 110.686221 100.048575"></polygon>
                <polygon id="Fill-69" points="120.473162 108.268138 122.472599 108.268138 122.472599 94.3214645 120.473162 94.3214645"></polygon>
                <polygon id="Fill-70" points="125.851464 94.3211823 127.842435 94.3211823 127.842435 106.44762 134.125775 106.44762 134.125775 108.267855 125.851464 108.267855"></polygon>
                <polygon id="Fill-71" points="142.302301 94.3211823 144.719405 94.3211823 139.571948 100.88673 139.571948 108.267855 137.525947 108.267855 137.525947 100.88673 132.37849 94.3211823 134.789949 94.3211823 138.515082 99.1328127"></polygon>
                <path d="M155.166287,96.0161179 L154.569419,96.0161179 L154.569419,100.418548 L155.324323,100.418548 C156.336035,100.418548 157.033086,100.333886 157.411244,100.16174 C157.782346,99.9895934 158.075842,99.7285518 158.288908,99.374382 C158.493508,99.0286783 158.606391,98.6307664 158.606391,98.1848792 C158.606391,97.7432251 158.489275,97.3481353 158.252221,96.9925544 C158.017989,96.6327404 157.690629,96.3858092 157.268729,96.2362394 C156.84683,96.0909028 156.141312,96.0161179 155.166287,96.0161179 Z M152.572804,108.268138 L152.572804,94.3214645 L156.066527,94.3214645 C157.474741,94.3214645 158.596514,94.6699902 159.426202,95.3698638 C160.250247,96.0655042 160.667913,97.0137199 160.667913,98.2060447 C160.667913,99.015979 160.463313,99.7186746 160.055524,100.308487 C159.649146,100.902533 159.070621,101.344187 158.310073,101.639094 C158.761605,101.929767 159.193382,102.330501 159.619514,102.838474 C160.045647,103.340802 160.642515,104.22411 161.417173,105.481343 C161.899747,106.274345 162.293426,106.869802 162.582688,107.267713 L163.32066,108.268138 L160.947298,108.268138 L160.339142,107.343909 C160.320799,107.315689 160.279879,107.259247 160.222026,107.178818 L159.828347,106.628514 L159.211725,105.611158 L158.548538,104.519017 C158.130872,103.950369 157.75977,103.493194 157.411244,103.151723 C157.066951,102.813075 156.757935,102.571788 156.484194,102.419396 C156.204809,102.271237 155.739167,102.196453 155.08868,102.196453 L154.569419,102.196453 L154.569419,108.268138 L152.572804,108.268138 Z" id="Fill-72"></path>
                <polygon id="Fill-73" points="165.148233 94.3211823 173.048619 94.3211823 173.048619 96.1004978 167.143437 96.1004978 167.143437 100.347714 172.853897 100.347714 172.853897 102.138318 167.143437 102.138318 167.143437 106.470196 173.239109 106.470196 173.239109 108.243868 165.148233 108.243868"></polygon>
                <path d="M179.107605,102.422218 L177.593564,101.502223 C176.638293,100.919466 175.960996,100.347996 175.560262,99.7878153 C175.153884,99.2219902 174.952106,98.5785581 174.952106,97.8476418 C174.952106,96.7456232 175.333086,95.8538489 176.093634,95.1666747 C176.859826,94.4865557 177.846139,94.140852 179.068096,94.140852 C180.226556,94.140852 181.300354,94.4653901 182.269735,95.1229326 L182.269735,97.3890553 C181.265078,96.4224961 180.182814,95.938511 179.022943,95.938511 C178.3781,95.938511 177.839084,96.0880807 177.420007,96.3914533 C176.999518,96.6905928 176.789274,97.0800386 176.789274,97.5485023 C176.789274,97.9675798 176.94731,98.3584365 177.254916,98.7253057 C177.563932,99.0879418 178.059206,99.4703324 178.743558,99.8696554 L180.266065,100.772718 C181.973418,101.791485 182.822861,103.079761 182.822861,104.650243 C182.822861,105.767783 182.444704,106.679312 181.696855,107.376363 C180.949006,108.073415 179.973981,108.427585 178.77319,108.427585 C177.403074,108.427585 176.14302,108.001452 175.01137,107.154831 L175.01137,104.6192 C176.089401,105.986493 177.340989,106.668023 178.759079,106.668023 C179.38699,106.668023 179.903429,106.493055 180.31404,106.147351 C180.73594,105.798826 180.941951,105.361405 180.941951,104.8365 C180.941951,103.989878 180.329562,103.184177 179.107605,102.422218" id="Fill-74"></path>
                <path d="M192.220356,96.0161179 C190.624475,96.0161179 189.315034,96.5156244 188.289212,97.5160485 C187.266211,98.5150615 186.752594,99.7906374 186.752594,101.338543 C186.752594,102.842707 187.266211,104.094295 188.3005,105.090486 C189.327734,106.085266 190.614598,106.590417 192.165326,106.590417 C193.721698,106.590417 195.01985,106.0768 196.061194,105.059443 C197.099716,104.043498 197.620388,102.773566 197.620388,101.259525 C197.620388,99.7821712 197.099716,98.536227 196.061194,97.5329809 C195.01985,96.5212686 193.73863,96.0161179 192.220356,96.0161179 M192.146982,94.1210975 C194.2974,94.1210975 196.090826,94.8040386 197.525849,96.1670987 C198.95805,97.5329809 199.670623,99.2445667 199.670623,101.299034 C199.670623,103.356324 198.953817,105.056621 197.507505,106.40416 C196.061194,107.750288 194.233904,108.427585 192.0341,108.427585 C189.928835,108.427585 188.183384,107.750288 186.782226,106.40416 C185.38389,105.056621 184.679783,103.367612 184.679783,101.338543 C184.679783,99.2530329 185.390945,97.5329809 186.80057,96.1670987 C188.211605,94.8040386 189.986687,94.1210975 192.146982,94.1210975" id="Fill-75"></path>
                <path d="M205.074041,96.0161179 L204.475762,96.0161179 L204.475762,100.418548 L205.226433,100.418548 C206.243789,100.418548 206.938019,100.333886 207.314765,100.16174 C207.690101,99.9895934 207.982185,99.7285518 208.191018,99.374382 C208.397029,99.0286783 208.511323,98.6307664 208.511323,98.1848792 C208.511323,97.7432251 208.394207,97.3481353 208.158564,96.9925544 C207.924333,96.6327404 207.59415,96.3858092 207.17084,96.2362394 C206.753173,96.0909028 206.044834,96.0161179 205.074041,96.0161179 Z M202.476325,108.268138 L202.476325,94.3214645 L205.968638,94.3214645 C207.381084,94.3214645 208.500035,94.6699902 209.329724,95.3698638 C210.158001,96.0655042 210.571435,97.0137199 210.571435,98.2060447 C210.571435,99.015979 210.366835,99.7186746 209.959045,100.308487 C209.552667,100.902533 208.976965,101.344187 208.217828,101.639094 C208.660893,101.929767 209.094081,102.330501 209.523036,102.838474 C209.947757,103.340802 210.546036,104.22411 211.319283,105.481343 C211.80468,106.274345 212.196947,106.869802 212.48621,107.267713 L213.227003,108.268138 L210.85082,108.268138 L210.246897,107.343909 C210.222909,107.315689 210.179167,107.259247 210.129781,107.178818 L209.736102,106.628514 L209.116657,105.611158 L208.45206,104.519017 C208.034393,103.950369 207.660469,103.493194 207.314765,103.151723 C206.973295,102.813075 206.665689,102.571788 206.390537,102.419396 C206.112563,102.271237 205.646922,102.196453 204.992201,102.196453 L204.475762,102.196453 L204.475762,108.268138 L202.476325,108.268138 Z" id="Fill-76"></path>
                <polygon id="Fill-77" points="212.020991 94.3032622 223.674732 94.3032622 223.674732 96.0797556 218.813715 96.0797556 218.813715 108.266868 216.807223 108.266868 216.807223 96.0797556 212.020991 96.0797556"></polygon>
            </g>
        </g>
    </g>
</svg>