<?xml version="1.0" encoding="UTF-8"?>
<svg width="309px" height="110px" viewBox="0 0 309 110" version="1.1" xmlns="http://www.w3.org/2000/svg" xmlns:xlink="http://www.w3.org/1999/xlink">
    <!-- Generator: Sketch 49.1 (51147) - http://www.bohemiancoding.com/sketch -->
    <title>goc</title>
    <desc>Created with Sketch.</desc>
    <defs></defs>
    <g id="Page-1" stroke="none" stroke-width="1" fill="none" fill-rule="evenodd">
        <g id="New-Hotspot-goc" transform="translate(-566.000000, -55.000000)" fill="#FFFFFF" fill-rule="nonzero">
            <g id="goc" transform="translate(566.000000, 55.000000)">
                <path d="M25.2907193,57.7193386 C25.6989964,57.5381578 26.0129602,57.292447 26.2735627,57.0194349 C28.9875506,54.0845554 24.3413819,51.4859771 25.8317795,48.5895675 C27.1434783,46.2925434 29.3300566,46.9514952 29.7495024,47.1190253 C29.0036831,47.5186157 28.1561048,48.1539892 27.9414181,49.4433506 C27.6075988,51.7403747 30.3352373,53.7817602 29.1873458,56.159447 C28.8510446,56.9772422 27.6075988,58.458953 25.2907193,57.7193386" id="Fill-2"></path>
                <path d="M33.2073241,57.7193386 C33.6031916,57.5381578 33.9221193,57.292447 34.1852036,57.0194349 C36.9041554,54.0845554 32.250541,51.4859771 33.7384566,48.5895675 C35.0476735,46.2925434 37.2392157,46.9514952 37.6561795,47.1190253 C36.9103602,47.5186157 36.0652639,48.1539892 35.8480952,49.4433506 C35.5142759,51.7403747 38.2468783,53.7817602 37.0989867,56.159447 C36.7626855,56.9772422 35.5142759,58.458953 33.2073241,57.7193386" id="Fill-4"></path>
                <path d="M29.2438096,57.7193386 C29.6471229,57.5381578 29.9685325,57.292447 30.2291349,57.0194349 C32.9443639,54.0845554 28.2981952,51.4859771 29.7848699,48.5895675 C31.0940867,46.2925434 33.283147,46.9514952 33.7038337,47.1190253 C32.9592554,47.5186157 32.1091952,48.1539892 31.8920265,49.4433506 C31.5681349,51.7403747 34.2883277,53.7817602 33.1478819,56.159447 C32.8090988,56.9772422 31.5606892,58.458953 29.2438096,57.7193386" id="Fill-6"></path>
                <path d="M22.1210494,63.2285976 C22.4821699,63.4854771 22.8457723,63.6430795 23.2242663,63.729947 C27.1159289,64.6147542 27.045194,59.2935012 30.2977602,59.127212 C32.9447361,59.1135614 33.4622181,61.3423325 33.5292301,61.7890795 C32.8144349,61.3423325 31.8365554,60.9241277 30.615447,61.3845253 C28.452447,62.2420313 28.0553386,65.6286217 25.4207723,65.824694 C24.538447,65.9450675 22.6372904,65.6062843 22.1210494,63.2285976" id="Fill-8"></path>
                <path d="M26.0741398,70.0805795 C26.4278145,70.3349771 26.8013446,70.4876157 27.1699108,70.5769651 C31.0739831,71.4667361 31.0007663,66.1392783 34.2483687,65.976712 C36.8953446,65.9667843 37.4190313,68.1893506 37.4798386,68.6435434 C36.7650434,68.1893506 35.7896458,67.7736277 34.5685373,68.2327843 C32.4080193,69.0964952 32.0109108,72.4756398 29.3738627,72.6704711 C28.4965012,72.7920855 26.5854169,72.4508205 26.0741398,70.0805795" id="Fill-10"></path>
                <path d="M24.0964157,66.6557675 C24.4575361,66.9101651 24.8236205,67.0628036 25.1921867,67.1546349 C29.096259,68.044406 29.0205602,62.7169482 32.2731265,62.5519 C34.9201024,62.5407313 35.4437892,64.7682614 35.5021145,65.2150084 C34.7898012,64.7682614 33.8119217,64.3450928 32.5883313,64.8030084 C30.4327771,65.6692012 30.0307048,69.0520687 27.3986205,69.2493819 C26.5162952,69.3672735 24.6126566,69.0309723 24.0964157,66.6557675" id="Fill-12"></path>
                <path d="M15.7671904,63.2189181 C15.7225157,63.6582193 15.7721542,64.0565687 15.8801181,64.423894 C17.0615157,68.2386169 21.6319855,65.5147012 23.400359,68.2448217 C24.739359,70.533159 23.0640578,72.1017373 22.7103831,72.3797133 C22.7426482,71.5370988 22.6173108,70.4810386 21.6096482,69.6520747 C19.7792265,68.2113157 16.6569614,69.5565205 15.1653229,67.3736651 C14.6192988,66.6700386 13.9653108,64.8520265 15.7671904,63.2189181" id="Fill-14"></path>
                <path d="M11.8061578,70.0702795 C11.7689289,70.5070988 11.8185675,70.9017253 11.9265313,71.2727735 C13.105447,75.0924602 17.6858446,72.3610988 19.4480133,75.0974241 C20.7894952,77.3857614 19.1191578,78.945653 18.7605193,79.2248699 C18.7865795,78.3859783 18.6637241,77.3286771 17.6535795,76.5009542 C15.8281217,75.065159 12.7008928,76.4054 11.2142181,74.2225446 C10.6706759,73.5214 10.0104831,71.700906 11.8061578,70.0702795" id="Fill-16"></path>
                <path d="M13.7863639,66.6478253 C13.745412,67.0846446 13.7913277,67.481753 13.8992916,67.8428735 C15.086894,71.6638012 19.6610867,68.9411265 21.4282193,71.6749699 C22.7597735,73.9583434 21.0919181,75.5231988 20.7382434,75.8061386 C20.7667855,74.9610422 20.6439301,73.9074639 19.6313036,73.0760181 C17.8058458,71.6365 14.673653,72.9817048 13.1944241,70.8000904 C12.6484,70.0915 11.9882072,68.272247 13.7863639,66.6478253" id="Fill-18"></path>
                <path d="M12.5901988,57.722441 C12.1893675,57.9061036 11.8679578,58.1480916 11.6073554,58.4223446 C8.88964458,61.359706 13.5382952,63.9607663 12.0541024,66.854694 C10.7448855,69.1542 8.5558253,68.4902843 8.1301747,68.3177904 C8.87723494,67.9256458 9.72977711,67.2865494 9.94446386,66.0033928 C10.2733193,63.6989229 7.55064458,61.6649831 8.6898494,59.2872964 C9.02739157,58.4645373 10.2782831,56.9828265 12.5901988,57.722441" id="Fill-20"></path>
                <path d="M4.67843373,57.722441 C4.28256627,57.9061036 3.95619277,58.1480916 3.69559036,58.4223446 C0.980361446,61.359706 5.62901205,63.9607663 4.15226506,66.854694 C2.83560241,69.1542 0.641578313,68.4902843 0.218409639,68.3177904 C0.967951807,67.9256458 1.81801205,67.2865494 2.0326988,66.0033928 C2.37148193,63.6989229 -0.358638554,61.6649831 0.779325301,59.2872964 C1.12059036,58.4645373 2.37148193,56.9828265 4.67843373,57.722441" id="Fill-22"></path>
                <path d="M8.63648795,57.722441 C8.2331747,57.9061036 7.91672892,58.1480916 7.65612651,58.4223446 C4.93345181,61.359706 9.58830723,63.9607663 8.09542771,66.854694 C6.78621084,69.1542 4.5971506,68.4902843 4.18018675,68.3177904 C4.9235241,67.9256458 5.77358434,67.2865494 5.98827108,66.0033928 C6.32209036,63.6989229 3.58948795,61.6649831 4.74234337,59.2872964 C5.07864458,58.4645373 6.32457229,56.9828265 8.63648795,57.722441" id="Fill-24"></path>
                <path d="M15.774388,52.2198831 C15.4157494,51.9654855 15.0471831,51.8078831 14.673653,51.7210157 C10.7770265,50.8312446 10.8527253,56.1587024 7.60015904,56.3212687 C4.9507012,56.3374012 4.43197831,54.1086301 4.36868916,53.6594012 C5.08596627,54.1086301 6.0564,54.5218711 7.27750843,54.0651964 C9.44423133,53.2039675 9.8400988,49.8235819 12.4746651,49.6250277 C13.3545084,49.5083771 15.2606289,49.8446783 15.774388,52.2198831" id="Fill-26"></path>
                <path d="M11.8236554,45.3715 C11.4650169,45.1158614 11.0914867,44.960741 10.7229205,44.8738735 C6.82629398,43.9841024 6.89702892,49.3115602 3.64198072,49.4741265 C0.997486747,49.4865361 0.476281928,47.2565241 0.412992771,46.8085361 C1.12778795,47.2565241 2.1081494,47.6759699 3.32925783,47.2180542 C5.48481205,46.3568253 5.88688434,42.9764398 8.51648675,42.7803675 C9.40005301,42.6537892 11.2999687,42.9987771 11.8236554,45.3715" id="Fill-28"></path>
                <path d="M13.7966639,48.7956916 C13.4355434,48.538812 13.071941,48.3836916 12.7008928,48.2968241 C8.79682048,47.408294 8.87251928,52.7332699 5.61995301,52.8945952 C2.97297711,52.9082458 2.45425422,50.6819566 2.39096506,50.2376916 C3.10576024,50.6819566 4.08115783,51.1026434 5.30474819,50.6422458 C7.4640253,49.7797759 7.8623747,46.3931855 10.4994229,46.1995952 C11.3767843,46.0804627 13.2804229,46.4229687 13.7966639,48.7956916" id="Fill-30"></path>
                <path d="M22.0081217,51.021112 C20.8242422,47.2014253 16.2463265,49.9278229 14.4841578,47.1927386 C13.1451578,44.9044012 14.8154952,43.3420277 15.1741337,43.0640518 C15.1381458,43.9091482 15.2659651,44.9614855 16.2736277,45.7929313 C18.1015675,47.2274855 21.2287964,45.8872446 22.7154711,48.0663771 C23.2590133,48.7712446 23.919206,50.5867747 22.1210494,52.2198831 C22.1632422,51.7818229 22.1136036,51.3871964 22.0081217,51.021112 Z" id="Fill-32"></path>
                <path d="M26.0741398,45.3715 C26.1163325,44.9321988 26.066694,44.5350904 25.9562482,44.171488 C24.7773325,40.3518012 20.1994169,43.0806807 18.4372482,40.3418735 C17.0994892,38.0585 18.7698265,36.4911627 19.1259831,36.2144277 C19.0986819,37.0558012 19.2240193,38.1118614 20.2292,38.9408253 C22.0571398,40.3778614 25.1843687,39.0363795 26.6710434,41.2142711 C27.2145855,41.9191386 27.8760193,43.7408735 26.0741398,45.3715" id="Fill-34"></path>
                <path d="M24.1012554,48.7981735 C24.1384843,48.3613542 24.0888458,47.9630048 23.9808819,47.5981614 C22.8019663,43.7735108 18.2215687,46.5023904 16.4569181,43.769788 C15.1204,41.4839325 16.7944602,39.9178361 17.145653,39.6373783 C17.1183518,40.4799928 17.2436892,41.536053 18.2513518,42.3650169 C20.0792916,43.8057759 23.2040386,42.4580892 24.6931952,44.6384627 C25.2392193,45.347053 25.8944482,47.1625831 24.1012554,48.7981735" id="Fill-36"></path>
                <path d="M26.3989287,94.4378746 L38.4600338,94.4378746 L38.4600338,96.277529 L33.4268219,96.277529 L33.4268219,108.896732 L31.3494594,108.896732 L31.3494594,96.277529 L26.3989287,96.277529 L26.3989287,94.4378746 Z M50.6001118,94.4585448 L52.6671393,94.4585448 L52.6671393,108.896732 L50.6001118,108.896732 L50.6001118,102.612968 L42.4870292,102.612968 L42.4870292,108.896732 L40.4200017,108.896732 L40.4200017,94.4585448 L42.4870292,94.4585448 L42.4870292,100.700968 L50.6001118,100.700968 L50.6001118,94.4585448 Z M55.8569886,94.4585448 L64.0424172,94.4585448 L64.0424172,96.2981993 L57.9240161,96.2981993 L57.9240161,100.700968 L63.8357145,100.700968 L63.8357145,102.550957 L57.9240161,102.550957 L57.9240161,107.036407 L64.2387849,107.036407 L64.2387849,108.876061 L55.8569886,108.876061 L55.8569886,94.4585448 Z M72.3341161,94.4585448 L80.5195448,94.4585448 L80.5195448,96.2981993 L74.4011435,96.2981993 L74.4011435,100.700968 L80.312842,100.700968 L80.312842,102.550957 L74.4011435,102.550957 L74.4011435,107.036407 L80.7159124,107.036407 L80.7159124,108.876061 L72.3341161,108.876061 L72.3341161,94.4585448 Z M94.3959259,94.4585448 L96.359602,94.4585448 L96.359602,108.896732 L94.5819584,108.896732 L84.9289403,97.7864591 L84.9289403,108.896732 L82.9859344,108.896732 L82.9859344,94.4585448 L84.6602267,94.4585448 L94.3959259,105.661834 L94.3959259,94.4585448 Z M98.2265536,94.4378746 L110.287659,94.4378746 L110.287659,96.277529 L105.254447,96.277529 L105.254447,108.896732 L103.177084,108.896732 L103.177084,96.277529 L98.2265536,96.277529 L98.2265536,94.4378746 Z M112.247627,94.4585448 L120.433055,94.4585448 L120.433055,96.2981993 L114.314654,96.2981993 L114.314654,100.700968 L120.226353,100.700968 L120.226353,102.550957 L114.314654,102.550957 L114.314654,107.036407 L120.629423,107.036407 L120.629423,108.876061 L112.247627,108.876061 L112.247627,94.4585448 Z M122.899445,108.896732 L122.899445,94.4585448 L126.516743,94.4585448 C127.977449,94.4585448 129.136696,94.820271 129.994517,95.5437342 C130.852338,96.2671975 131.281241,97.2455806 131.281241,98.4789132 C131.281241,99.3195086 131.071095,100.046406 130.650798,100.659627 C130.2305,101.272848 129.627623,101.731035 128.842149,102.0342 C129.303788,102.337366 129.755084,102.750767 130.196052,103.274417 C130.63702,103.798066 131.257122,104.710994 132.056377,106.013228 C132.559356,106.833153 132.962422,107.44981 133.265588,107.863218 L134.030388,108.896732 L131.570625,108.896732 L130.940182,107.945899 C130.919511,107.911448 130.878171,107.852883 130.81616,107.770202 L130.41309,107.201769 L129.772311,106.147585 L129.079857,105.021055 C128.652669,104.428504 128.261661,103.956538 127.906818,103.605141 C127.551977,103.253745 127.231591,103.000537 126.945651,102.845509 C126.659711,102.690481 126.179132,102.612968 125.503899,102.612968 L124.966472,102.612968 L124.966472,108.896732 L122.899445,108.896732 Z M125.586581,96.2155182 L124.966472,96.2155182 L124.966472,100.773314 L125.751943,100.773314 C126.799242,100.773314 127.517527,100.683743 127.906818,100.5046 C128.296111,100.325457 128.599273,100.055024 128.816311,99.6932918 C129.033351,99.3315602 129.141868,98.9198814 129.141868,98.4582429 C129.141868,98.0034946 129.021292,97.5918157 128.780138,97.223194 C128.538984,96.8545723 128.19965,96.5944739 127.762127,96.4428912 C127.324604,96.2913084 126.599429,96.2155182 125.586581,96.2155182 Z M130.594224,94.4378746 L142.655329,94.4378746 L142.655329,96.277529 L137.622117,96.277529 L137.622117,108.896732 L135.544754,108.896732 L135.544754,96.277529 L130.594224,96.277529 L130.594224,94.4378746 Z M144.987312,94.3758637 L146.444566,94.3758637 L152.904027,108.896732 L150.785324,108.896732 L148.862989,104.617985 L142.723917,104.617985 L140.904933,108.896732 L138.786229,108.896732 L144.987312,94.3758637 Z M148.015507,102.77833 L145.690101,97.5487508 L143.530057,102.77833 L148.015507,102.77833 Z M154.522935,94.4585448 L156.589963,94.4585448 L156.589963,108.896732 L154.522935,108.896732 L154.522935,94.4585448 Z M171.272484,94.4585448 L173.23616,94.4585448 L173.23616,108.896732 L171.458517,108.896732 L161.805498,97.7864591 L161.805498,108.896732 L159.862493,108.896732 L159.862493,94.4585448 L161.536785,94.4585448 L171.272484,105.661834 L171.272484,94.4585448 Z M187.825666,94.4585448 L189.748002,94.4585448 L189.748002,108.896732 L187.670639,108.896732 L187.670639,97.6624374 L183.22653,103.243411 L182.844131,103.243411 L178.35868,97.6624374 L178.35868,108.896732 L176.291653,108.896732 L176.291653,94.4585448 L178.234659,94.4585448 L183.040498,100.390914 L187.825666,94.4585448 Z M192.865505,94.4585448 L201.050933,94.4585448 L201.050933,96.2981993 L194.932532,96.2981993 L194.932532,100.700968 L200.844231,100.700968 L200.844231,102.550957 L194.932532,102.550957 L194.932532,107.036407 L201.247301,107.036407 L201.247301,108.876061 L192.865505,108.876061 L192.865505,94.4585448 Z M214.927315,94.4585448 L216.89099,94.4585448 L216.89099,108.896732 L215.113347,108.896732 L205.46033,97.7864591 L205.46033,108.896732 L203.517324,108.896732 L203.517324,94.4585448 L205.191615,94.4585448 L214.927315,105.661834 L214.927315,94.4585448 Z M218.757942,94.4378746 L230.819048,94.4378746 L230.819048,96.277529 L225.785836,96.277529 L225.785836,108.896732 L223.708474,108.896732 L223.708474,96.277529 L218.757942,96.277529 L218.757942,94.4378746 Z M238.728347,108.896732 L238.728347,94.4585448 L242.345645,94.4585448 C243.806351,94.4585448 244.965597,94.820271 245.823419,95.5437342 C246.681239,96.2671975 247.110143,97.2455806 247.110143,98.4789132 C247.110143,99.3195086 246.899997,100.046406 246.4797,100.659627 C246.059402,101.272848 245.456525,101.731035 244.671051,102.0342 C245.132689,102.337366 245.583986,102.750767 246.024954,103.274417 C246.465921,103.798066 247.086024,104.710994 247.885278,106.013228 C248.388258,106.833153 248.791324,107.44981 249.094489,107.863218 L249.859289,108.896732 L247.399527,108.896732 L246.769083,107.945899 C246.748413,107.911448 246.707073,107.852883 246.645062,107.770202 L246.241991,107.201769 L245.601213,106.147585 L244.908759,105.021055 C244.481571,104.428504 244.090562,103.956538 243.73572,103.605141 C243.380879,103.253745 243.060493,103.000537 242.774553,102.845509 C242.488612,102.690481 242.008033,102.612968 241.332801,102.612968 L240.795374,102.612968 L240.795374,108.896732 L238.728347,108.896732 Z M241.415483,96.2155182 L240.795374,96.2155182 L240.795374,100.773314 L241.580845,100.773314 C242.628144,100.773314 243.346429,100.683743 243.73572,100.5046 C244.125013,100.325457 244.428173,100.055024 244.645213,99.6932918 C244.862251,99.3315602 244.97077,98.9198814 244.97077,98.4582429 C244.97077,98.0034946 244.850194,97.5918157 244.60904,97.223194 C244.367885,96.8545723 244.028552,96.5944739 243.591029,96.4428912 C243.153506,96.2913084 242.42833,96.2155182 241.415483,96.2155182 Z M251.457527,94.4585448 L259.642956,94.4585448 L259.642956,96.2981993 L253.524555,96.2981993 L253.524555,100.700968 L259.436254,100.700968 L259.436254,102.550957 L253.524555,102.550957 L253.524555,107.036407 L259.839324,107.036407 L259.839324,108.876061 L251.457527,108.876061 L251.457527,94.4585448 Z M265.623292,102.840341 L264.052351,101.889508 C263.067063,101.290068 262.366004,100.699248 261.949151,100.117032 C261.532299,99.5348168 261.323875,98.8647621 261.323875,98.1068482 C261.323875,96.9699776 261.718329,96.0467145 262.507248,95.3370314 C263.296167,94.6273485 264.321058,94.2725124 265.581952,94.2725124 C266.787723,94.2725124 267.893572,94.6101235 268.899531,95.2853558 L268.899531,97.631432 C267.859122,96.6323637 266.739493,96.1328371 265.540612,96.1328371 C264.865379,96.1328371 264.310732,96.2895851 263.876654,96.6030858 C263.442576,96.9165866 263.22554,97.3179303 263.22554,97.8071293 C263.22554,98.2412073 263.384012,98.6477186 263.700957,99.0266755 C264.017902,99.4056325 264.531209,99.8018087 265.240892,100.215216 L266.822169,101.145379 C268.58604,102.192678 269.467963,103.529342 269.467963,105.155412 C269.467963,106.312953 269.080399,107.253441 268.305261,107.976904 C267.530121,108.700368 266.522455,109.062094 265.282233,109.062094 C263.855977,109.062094 262.557207,108.624577 261.385886,107.749531 L261.385886,105.124407 C262.502087,106.536882 263.793965,107.24311 265.261563,107.24311 C265.909234,107.24311 266.448378,107.062247 266.879011,106.700515 C267.309644,106.338783 267.524958,105.885764 267.524958,105.341444 C267.524958,104.459508 266.891076,103.625815 265.623292,102.840341 Z M278.838225,94.2518421 C281.070625,94.2518421 282.92921,94.9580694 284.414032,96.3705452 C285.898853,97.7830211 286.641254,99.5537569 286.641254,101.682806 C286.641254,103.811855 285.891964,105.573978 284.393361,106.969228 C282.894759,108.364479 281.00517,109.062094 278.724539,109.062094 C276.547259,109.062094 274.73346,108.364479 273.283088,106.969228 C271.832717,105.573978 271.107542,103.825635 271.107542,101.724146 C271.107542,99.5675369 271.837884,97.7830211 273.298592,96.3705452 C274.759298,94.9580694 276.605824,94.2518421 278.838225,94.2518421 Z M278.920906,96.2155182 C277.267276,96.2155182 275.908218,96.7322698 274.843695,97.7657887 C273.77917,98.7993077 273.246915,100.118747 273.246915,101.724146 C273.246915,103.281315 273.780892,104.576639 274.848862,105.610158 C275.916832,106.643677 277.253495,107.160428 278.858895,107.160428 C280.471184,107.160428 281.816461,106.633342 282.894767,105.579153 C283.973071,104.524963 284.512215,103.212414 284.512215,101.641465 C284.512215,100.111857 283.973071,98.8251456 282.894767,97.7812914 C281.816461,96.7374374 280.491855,96.2155182 278.920906,96.2155182 Z M289.242,108.896732 L289.242,94.4585448 L292.859298,94.4585448 C294.320004,94.4585448 295.479251,94.820271 296.337072,95.5437342 C297.194892,96.2671975 297.623796,97.2455806 297.623796,98.4789132 C297.623796,99.3195086 297.41365,100.046406 296.993353,100.659627 C296.573055,101.272848 295.970179,101.731035 295.184703,102.0342 C295.646342,102.337366 296.097638,102.750767 296.538607,103.274417 C296.979575,103.798066 297.599677,104.710994 298.398931,106.013228 C298.901911,106.833153 299.304977,107.44981 299.608142,107.863218 L300.372942,108.896732 L297.913181,108.896732 L297.282736,107.945899 C297.262067,107.911448 297.220726,107.852883 297.158715,107.770202 L296.755644,107.201769 L296.114866,106.147585 L295.422412,105.021055 C294.995224,104.428504 294.604215,103.956538 294.249374,103.605141 C293.894533,103.253745 293.574147,103.000537 293.288206,102.845509 C293.002266,102.690481 292.521686,102.612968 291.846454,102.612968 L291.309028,102.612968 L291.309028,108.896732 L289.242,108.896732 Z M291.929135,96.2155182 L291.309028,96.2155182 L291.309028,100.773314 L292.094497,100.773314 C293.141797,100.773314 293.860082,100.683743 294.249374,100.5046 C294.638665,100.325457 294.941827,100.055024 295.158866,99.6932918 C295.375905,99.3315602 295.484423,98.9198814 295.484423,98.4582429 C295.484423,98.0034946 295.363847,97.5918157 295.122693,97.223194 C294.881538,96.8545723 294.542205,96.5944739 294.104682,96.4428912 C293.667159,96.2913084 292.941984,96.2155182 291.929135,96.2155182 Z M296.938895,94.4378746 L309,94.4378746 L309,96.277529 L303.966788,96.277529 L303.966788,108.896732 L301.889426,108.896732 L301.889426,96.277529 L296.938895,96.277529 L296.938895,94.4378746 Z" id="THE-ENTERTAINMENT-RESORT"></path>
                <path d="M66.2103855,66.962906 C64.0585542,69.1060506 61.3768313,70.191894 58.2496024,70.191894 C55.103759,70.191894 52.4059036,69.1060506 50.2342169,66.962906 C48.0600482,64.8284482 46.9568313,62.1690627 46.9568313,59.0592072 C46.9568313,55.9406651 48.0600482,53.2750747 50.2342169,51.1319301 C52.4133494,48.9900265 55.106241,47.9041831 58.2496024,47.9041831 C61.3755904,47.9041831 64.0535904,48.9900265 66.2103855,51.1319301 C68.357253,53.2713518 69.4480602,55.9406651 69.4480602,59.0592072 C69.4480602,62.1715446 68.357253,64.8309301 66.2103855,66.962906 M68.4366747,49.1004723 C65.6407831,46.398894 62.1859398,45.0288699 58.1751446,45.0288699 C54.1705542,45.0288699 50.7306024,46.4013759 47.9570482,49.1054361 C45.1673614,51.8132193 43.7576265,55.1600988 43.7576265,59.0592072 C43.7576265,62.9446651 45.1673614,66.2865807 47.9520843,68.9943639 C50.7281205,71.6959422 54.1680723,73.0659663 58.1751446,73.0659663 C62.1884217,73.0659663 65.6420241,71.6959422 68.4366747,68.9943639 C71.2276024,66.2927855 72.6435422,62.9508699 72.6435422,59.0592072 C72.6435422,55.1600988 71.2276024,51.8082554 68.4366747,49.1004723" id="Fill-39"></path>
                <path d="M112.142429,58.9997651 C111.206742,58.488488 109.752333,57.8605602 107.696055,57.0824759 C105.791176,56.3651988 104.537802,55.6255843 103.9682,54.8872108 C103.412248,54.1562831 103.129308,53.3298012 103.129308,52.4288614 C103.129308,51.1618373 103.610802,50.0821988 104.565104,49.2246928 C105.52561,48.3498133 106.7492,47.9043072 108.206092,47.9043072 C109.74861,47.9043072 111.651007,48.5607771 113.852477,49.8501386 L114.532525,50.2646205 L114.606983,50.3130181 L114.606983,46.915259 L114.348863,46.7477289 C112.267766,45.6060422 110.134549,45.028994 108.014983,45.028994 C105.801104,45.028994 103.886296,45.7611627 102.316477,47.2056446 C100.731766,48.6600542 99.9338265,50.4482831 99.9338265,52.5182108 C99.9338265,54.0135723 100.267646,55.2619819 100.935284,56.2262108 C101.576863,57.1693434 102.385971,57.9089578 103.331586,58.4276807 C104.221357,58.9166205 105.711754,59.5619217 107.756863,60.3449699 C109.700212,61.095753 110.994537,61.8887289 111.597646,62.7003193 C112.192067,63.5094277 112.498586,64.4302229 112.498586,65.4366446 C112.498586,66.7669578 112.007164,67.9011988 111.046658,68.8058614 C110.063814,69.7241747 108.845188,70.1920181 107.424284,70.1920181 C105.660875,70.1920181 103.525176,69.2774277 101.082959,67.4780301 L100.368164,66.9394518 L100.289983,66.8786446 L100.289983,70.332247 L100.328453,70.5481747 L100.330935,70.5680301 L100.508393,70.6809578 C102.893525,72.2631867 105.260043,73.0660904 107.542176,73.0660904 C109.803212,73.0660904 111.74408,72.3165482 113.313899,70.8410422 C114.897369,69.3531265 115.69779,67.5040904 115.69779,65.3448133 C115.69779,63.7228735 115.34908,62.3801506 114.657863,61.3501506 C113.970369,60.3300783 113.125272,59.5408253 112.142429,58.9997651" id="Fill-41"></path>
                <polygon id="Fill-43" points="118.971205 72.7316506 122.000398 72.7316506 122.000398 45.3721205 118.971205 45.3721205"></polygon>
                <path d="M137.019907,58.9997651 C136.08422,58.4897289 134.629811,57.8618012 132.571052,57.0824759 C130.668654,56.3664398 129.415281,55.6280663 128.84816,54.8872108 C128.289727,54.1562831 128.008028,53.3298012 128.008028,52.4288614 C128.008028,51.1618373 128.489522,50.0821988 129.442582,49.2246928 C130.403088,48.3498133 131.626678,47.9043072 133.081088,47.9043072 C134.632293,47.9043072 136.528486,48.5607771 138.724992,49.8526205 L139.408763,50.2671024 L139.48198,50.3105361 L139.48198,46.915259 L139.226341,46.7477289 C137.145245,45.6060422 135.012028,45.028994 132.892461,45.028994 C130.678582,45.028994 128.762534,45.7611627 127.188992,47.2056446 C125.609245,48.6612952 124.813787,50.4507651 124.813787,52.5182108 C124.813787,54.0185361 125.147606,55.2669458 125.811522,56.2262108 C126.456823,57.1718253 127.260967,57.9114398 128.206582,58.4276807 C129.101317,58.9166205 130.590473,59.5619217 132.641787,60.3449699 C134.580172,61.095753 135.868293,61.8887289 136.475124,62.7003193 C137.072028,63.5019819 137.376064,64.4240181 137.376064,65.4366446 C137.376064,66.7644759 136.88216,67.8987169 135.914208,68.8058614 C134.941293,69.7241747 133.725148,70.1920181 132.303004,70.1920181 C130.543317,70.1920181 128.408859,69.2749458 125.955473,67.4730663 L125.238196,66.9481386 L125.162498,66.8922952 L125.162498,70.332247 L125.215859,70.5680301 L125.383389,70.6809578 C127.768522,72.2631867 130.13504,73.0660904 132.418413,73.0660904 C134.678208,73.0660904 136.625281,72.3165482 138.197582,70.8410422 C139.779811,69.3506446 140.577751,67.5016084 140.577751,65.3448133 C140.577751,63.7303193 140.226558,62.3851145 139.527895,61.3526325 C138.850329,60.3387651 138.007714,59.5470301 137.019907,58.9997651" id="Fill-45"></path>
                <polygon id="Fill-46" points="85.6919048 43.3670952 85.6484711 43.2703 72.4781217 71.973794 72.156712 72.6389506 72.1194831 72.7096855 75.3894229 72.7096855 85.6286157 50.2867096 95.8032783 72.488794 95.9013145 72.6836253 95.9137241 72.7096855 99.1600855 72.7096855 86.6722663 45.5139627"></polygon>
                <polygon id="Fill-47" points="185.706518 43.276753 172.526241 71.9752831 172.214759 72.700006 175.463602 72.700006 185.684181 50.2956446 195.816651 72.4021747 195.959361 72.6727048 199.205723 72.700006 185.753675 43.3735482"></polygon>
                <path d="M161.502263,70.1119759 C158.237287,70.1119759 155.522058,69.0646024 153.423588,67.0021205 C151.335046,64.9520482 150.276504,62.2901807 150.276504,59.0922169 C150.276504,55.9240361 151.332564,53.251 153.41366,51.1463253 C155.497239,49.0428916 158.123118,47.9744217 161.224287,47.9744217 C164.175299,47.9744217 167.239239,48.8058675 170.325516,50.4414578 L171.096154,50.882 L171.096154,47.6976867 L171.025419,47.4259157 L171.017973,47.4048193 L170.797082,47.3030602 C167.54948,45.8114217 164.372612,45.0581566 161.349624,45.0581566 C157.477817,45.0581566 154.088745,46.4083253 151.277961,49.0689518 C148.464696,51.740747 147.04007,55.1124458 147.04007,59.0922169 C147.04007,63.0446867 148.436154,66.3915663 151.189853,69.0373012 C153.939829,71.686759 157.420733,73.0307229 161.534528,73.0307229 C164.708913,73.0307229 167.939142,72.1719759 171.138347,70.4805422 L171.338142,70.3874699 L171.364202,70.3738193 L171.364202,67.088988 L170.598528,67.4836145 C167.324865,69.2271687 164.262166,70.1119759 161.502263,70.1119759" id="Fill-48"></path>
                <polygon id="Fill-49" points="222.967575 67.5089301 203.938635 45.5798578 203.81702 45.4334241 201.33137 45.4334241 201.33137 72.7259422 204.402755 72.7259422 204.402755 50.6504361 223.48878 72.5881952 223.59178 72.7098096 223.609153 72.7259422 226.036478 72.7259422 226.036478 45.4334241 222.967575 45.4334241"></polygon>
                <path d="M242.921653,70.1119759 C239.659159,70.1119759 236.946412,69.0646024 234.852906,67.0021205 C232.7594,64.9483253 231.695894,62.2876988 231.695894,59.0922169 C231.695894,55.9240361 232.754436,53.2534819 234.838014,51.1463253 C236.919111,49.0428916 239.54499,47.9744217 242.646159,47.9744217 C245.599653,47.9744217 248.666075,48.8083494 251.766002,50.4476627 L252.459701,50.8087831 L252.531677,50.848494 L252.531677,47.6976867 L252.452255,47.4259157 L252.44481,47.4048193 L252.2264,47.3030602 C248.977557,45.8114217 245.800689,45.0581566 242.778942,45.0581566 C238.894725,45.0581566 235.503171,46.4083253 232.699834,49.0689518 C229.886569,51.7444699 228.461942,55.1174096 228.461942,59.0922169 C228.461942,63.0422048 229.856786,66.3890843 232.611725,69.0373012 C235.364183,71.686759 238.845087,73.0307229 242.961364,73.0307229 C246.129545,73.0307229 249.361014,72.1719759 252.570147,70.4743373 L252.757533,70.3775422 L252.783593,70.3663735 L252.783593,67.088988 L252.0204,67.4836145 C248.741773,69.2271687 245.680316,70.1119759 242.921653,70.1119759" id="Fill-50"></path>
                <path d="M275.512094,60.351547 C275.512094,63.4899446 274.720359,65.9284386 273.162949,67.5987759 C271.614227,69.2653904 269.565395,70.1117277 267.067335,70.1117277 C264.597817,70.1117277 262.558913,69.2728361 261.007708,67.6248361 C259.450299,65.9768361 258.658564,63.6214867 258.658564,60.6282819 L258.658564,45.3942096 L255.571046,45.3942096 L255.571046,60.7089446 C255.571046,64.4839566 256.646961,67.5156313 258.773973,69.7133783 C260.912154,71.9148482 263.703082,73.0304747 267.067335,73.0304747 C270.437793,73.0304747 273.231202,71.9024386 275.376829,69.6761494 C277.500118,67.458547 278.578516,64.2804386 278.578516,60.2324145 L278.578516,45.3942096 L275.512094,45.3942096 L275.512094,60.351547 Z" id="Fill-51"></path>
                <polygon id="Fill-52" points="303.944686 67.4695916 284.897131 45.5256277 284.794131 45.4102181 284.780481 45.3940855 282.308481 45.3940855 282.308481 72.6890855 285.374902 72.6890855 285.374902 50.6110976 304.463408 72.5500976 304.566408 72.6704711 304.583782 72.6890855 307.011107 72.6890855 307.011107 45.3940855 303.944686 45.3940855"></polygon>
                <path d="M116.477196,9.051443 L122.150222,9.051443 L122.150222,16.2122776 C120.069699,17.1154504 118.005334,17.56703 115.957067,17.56703 C113.158844,17.56703 110.923122,16.7505579 109.249833,15.1175892 C107.576544,13.4846204 106.739912,11.4706558 106.739912,9.075635 C106.739912,6.55158948 107.606784,4.45093773 109.340553,2.77361675 C111.074322,1.09629576 113.247549,0.25764785 115.860299,0.25764785 C116.811856,0.25764785 117.715016,0.360462858 118.569804,0.56609596 C119.424593,0.771729061 120.505159,1.14871743 121.811534,1.69707236 L121.811534,4.16465725 C119.795523,2.99537098 117.79567,2.41073662 115.811915,2.41073662 C113.96525,2.41073662 112.408913,3.03972256 111.142858,4.2977133 C109.876803,5.55570403 109.243785,7.09994515 109.243785,8.93048295 C109.243785,10.8497252 109.876803,12.4181581 111.142858,13.6358286 C112.408913,14.8534992 114.037825,15.4623253 116.029643,15.4623253 C116.997329,15.4623253 118.154502,15.2405674 119.501197,14.797045 L119.731021,14.724469 L119.731021,11.2045318 L116.477196,11.2045318 L116.477196,9.051443 Z M125.903746,17.373494 L125.903746,0.475375927 L130.137348,0.475375927 C131.846926,0.475375927 133.20368,0.898731845 134.207654,1.74545638 C135.211627,2.59218092 135.713607,3.73725788 135.713607,5.18072161 C135.713607,6.16453489 135.467656,7.01527867 134.975749,7.73297853 C134.483844,8.45067837 133.77825,8.9869292 132.858949,9.34174709 C133.39924,9.69656501 133.927427,10.1804003 134.443526,10.7932676 C134.959624,11.4061349 135.685377,12.4746046 136.620807,13.9987088 C137.209482,14.9583299 137.681221,15.680051 138.036039,16.1638935 L138.931143,17.373494 L136.052294,17.373494 L135.314438,16.2606616 C135.290246,16.2203413 135.241863,16.1517981 135.169286,16.0550294 L134.697541,15.3897492 L133.94759,14.1559568 L133.137157,12.8374924 C132.637186,12.1439846 132.179559,11.591606 131.76426,11.1803398 C131.348963,10.7690736 130.97399,10.4727244 130.639333,10.2912834 C130.304675,10.1098425 129.742216,10.0191233 128.95194,10.0191233 L128.322947,10.0191233 L128.322947,17.373494 L125.903746,17.373494 Z M129.048707,2.53169667 L128.322947,2.53169667 L128.322947,7.86603457 L129.242243,7.86603457 C130.467978,7.86603457 131.308643,7.76120358 131.76426,7.55153846 C132.219879,7.34187333 132.574692,7.02536438 132.828709,6.60200212 C133.082726,6.17863985 133.209734,5.6968205 133.209734,5.1565296 C133.209734,4.62430276 133.068615,4.1424834 132.786373,3.71105709 C132.504132,3.27963077 132.106983,2.97521771 131.594917,2.79780876 C131.082849,2.62039981 130.234122,2.53169667 129.048707,2.53169667 Z M146.337662,0.378607893 L148.043198,0.378607893 L155.603201,17.373494 L153.12352,17.373494 L150.873663,12.3657482 L143.688636,12.3657482 L141.55974,17.373494 L139.080059,17.373494 L146.337662,0.378607893 Z M149.88179,10.2126594 L147.16019,4.09208122 L144.632125,10.2126594 L149.88179,10.2126594 Z M171.041466,0.475375927 L173.339706,0.475375927 L173.339706,17.373494 L171.259195,17.373494 L159.961527,4.37028932 L159.961527,17.373494 L157.687478,17.373494 L157.687478,0.475375927 L159.64703,0.475375927 L171.041466,13.5874447 L171.041466,0.475375927 Z M177.129519,17.349302 L177.129519,0.475375927 L182.826737,0.475375927 C185.12499,0.475375927 186.943404,0.820108603 188.282036,1.50958429 C189.620667,2.19905999 190.685105,3.21309822 191.475381,4.55172939 C192.265657,5.89036056 192.660789,7.34993049 192.660789,8.93048295 C192.660789,10.059449 192.443063,11.1400146 192.007605,12.1722121 C191.572147,13.2044096 190.951225,14.1116009 190.14482,14.893813 C189.322288,15.7002174 188.366713,16.3090436 187.278067,16.7203098 C186.641009,16.9702951 186.056373,17.1376215 185.524147,17.2222939 C184.99192,17.3069664 183.975866,17.349302 182.475954,17.349302 L177.129519,17.349302 Z M182.572722,2.62846469 L179.54872,2.62846469 L179.54872,15.1962132 L182.645297,15.1962132 C183.854904,15.1962132 184.794351,15.1135579 185.463666,14.9482451 C186.132983,14.7829322 186.691409,14.5732702 187.138964,14.3192528 C187.586518,14.0652355 187.995761,13.7527586 188.366708,13.3818125 C189.560186,12.1722061 190.156916,10.6440928 190.156916,8.7974269 C190.156916,6.98301719 189.544059,5.50328746 188.318324,4.35819332 C187.866737,3.93079903 187.348631,3.5800184 186.763987,3.30584094 C186.179344,3.03166347 185.62495,2.85022522 185.100786,2.76152074 C184.576624,2.67281627 183.733944,2.62846469 182.572722,2.62846469 Z" id="GRAND"></path>
            </g>
        </g>
    </g>
</svg>