<?xml version="1.0" encoding="UTF-8"?>
<svg width="252px" height="111px" viewBox="0 0 252 111" version="1.1" xmlns="http://www.w3.org/2000/svg" xmlns:xlink="http://www.w3.org/1999/xlink">
    <!-- Generator: Sketch 49.1 (51147) - http://www.bohemiancoding.com/sketch -->
    <title>gop</title>
    <desc>Created with Sketch.</desc>
    <defs></defs>
    <g id="Page-1" stroke="none" stroke-width="1" fill="none" fill-rule="evenodd">
        <g id="New-Hotspot-palm" transform="translate(-594.000000, -55.000000)" fill="#FFFFFF" fill-rule="nonzero">
            <g id="gop" transform="translate(594.000000, 55.000000)">
                <path d="M28.1396921,53.3328314 C28.5592524,53.1428419 28.8785403,52.8948 29.1476921,52.6098157 C31.9460796,49.5937319 27.1633571,46.9206848 28.6938283,43.9375853 C30.0448649,41.5732712 32.2943937,42.2527476 32.728467,42.4269047 C31.9605927,42.8359099 31.0818911,43.488999 30.8628754,44.8162869 C30.5251162,47.1792817 33.3327393,49.2797215 32.1492628,51.727156 C31.7996293,52.5702346 30.5251162,54.0914702 28.1396921,53.3328314" id="Fill-2"></path>
                <path d="M36.2840419,53.3328314 C36.6930471,53.1428419 37.0176126,52.8948 37.2920419,52.6098157 C40.0838325,49.5937319 35.3024293,46.9206848 36.8329005,43.9375853 C38.1799791,41.5732712 40.433466,42.2527476 40.8675393,42.4269047 C40.0943874,42.8359099 39.2222827,43.488999 39.003267,44.8162869 C38.6628691,47.1792817 41.4704921,49.2797215 40.2883351,51.727156 C39.9400209,52.5702346 38.6536335,54.0914702 36.2840419,53.3328314" id="Fill-4"></path>
                <path d="M32.2099539,53.3328314 C32.6189592,53.1428419 32.9567183,52.8948 33.2232314,52.6098157 C36.0202995,49.5937319 31.2322995,46.9206848 32.7588126,43.9375853 C34.1098492,41.5732712 36.359378,42.2527476 36.7934513,42.4269047 C36.0308545,42.8359099 35.156111,43.488999 34.9318178,44.8162869 C34.5940586,47.1792817 37.4016817,49.2797215 36.2195246,51.727156 C35.8751686,52.5702346 34.5887812,54.0914702 32.2099539,53.3328314" id="Fill-6"></path>
                <path d="M24.878601,58.9980817 C25.2467058,59.2632754 25.6319623,59.4268775 26.010622,59.5179141 C30.0162346,60.4243225 29.9463079,54.9489298 33.2869571,54.7800503 C36.0140984,54.7642178 36.548444,57.0586052 36.6144126,57.5177466 C35.8808419,57.0586052 34.8728419,56.6298094 33.6154806,57.1034639 C31.3923393,57.9861236 30.983334,61.4666262 28.2746639,61.6711288 C27.362978,61.7964691 25.4063497,61.4468356 24.878601,58.9980817" id="Fill-8"></path>
                <path d="M28.9475435,66.0497277 C29.3116901,66.309644 29.6956272,66.469288 30.0742869,66.5590052 C34.0891351,67.4759686 34.0152503,61.9966178 37.3558995,61.8264188 C40.0804021,61.8158639 40.6187058,64.1049738 40.6780775,64.5693927 C39.9445068,64.1049738 38.9417843,63.676178 37.6857424,64.1511518 C35.4652398,65.0377696 35.0522764,68.5129948 32.3383288,68.7135393 C31.4371979,68.8375602 29.471334,68.4892461 28.9475435,66.0497277" id="Fill-10"></path>
                <path d="M26.9079267,62.5244984 C27.2826283,62.7883728 27.6560105,62.9427393 28.0346702,63.0390534 C32.0547958,63.9560168 31.9756335,58.4753466 35.3215602,58.3051476 C38.0434241,58.2906346 38.5830471,60.5837026 38.6437382,61.042844 C37.9101675,60.5837026 36.907445,60.1509487 35.6514031,60.6193257 C33.4309005,61.5112209 33.0179372,64.9930429 30.309267,65.1922681 C29.4028586,65.316289 27.4422723,64.9679749 26.9079267,62.5244984" id="Fill-12"></path>
                <path d="M18.3411141,58.9891099 C18.2962555,59.4429738 18.3463916,59.8506597 18.4558995,60.2293194 C19.6776377,64.1557696 24.374601,61.3521047 26.2006115,64.1597277 C27.5714387,66.5134869 25.850978,68.1297173 25.4868314,68.4147016 C25.5158576,67.546555 25.393156,66.4593927 24.3561298,65.6070785 C22.4707476,64.1254241 19.2528,65.5107644 17.7223288,63.262555 C17.1629152,62.5395393 16.491355,60.6686702 18.3411141,58.9891099" id="Fill-14"></path>
                <path d="M14.2657068,66.040756 C14.227445,66.4893424 14.2815393,66.8930702 14.3910471,67.2770073 C15.6035497,71.2074157 20.3150262,68.3945152 22.1265236,71.2113738 C23.5079058,73.565133 21.7914031,75.1721277 21.4180209,75.4557927 C21.4470471,74.5929236 21.3230262,73.5057613 20.2807225,72.6534471 C18.4006178,71.1770702 15.189267,72.5584524 13.6574764,70.3089236 C13.0941047,69.589866 12.4159476,67.7163581 14.2657068,66.040756" id="Fill-16"></path>
                <path d="M16.3066429,62.5193529 C16.2617843,62.9679393 16.310601,63.3769445 16.4214283,63.7463686 C17.637889,67.6754576 22.3506848,64.8783895 24.1608628,67.6912901 C25.5369675,70.0397717 23.8217843,71.6507246 23.4576377,71.9409864 C23.4813864,71.0715204 23.3586848,69.9843581 22.3163812,69.132044 C20.4349571,67.6517089 17.2183288,69.0330911 15.6918157,66.7875204 C15.1337215,66.0605466 14.4516063,64.1909969 16.3066429,62.5193529" id="Fill-18"></path>
                <path d="M15.0697319,53.3328314 C14.6594073,53.5241403 14.3308838,53.7721822 14.0617319,54.0571665 C11.268622,57.0785277 16.046067,59.7515749 14.5208733,62.7293969 C13.1737948,65.0976691 10.9189885,64.4142346 10.4862346,64.2361194 C11.2541089,63.8310723 12.1314911,63.1727058 12.3505068,61.8559728 C12.6843079,59.482423 9.88723979,57.3925382 11.0601613,54.9451037 C11.4097948,54.0967476 12.6895853,52.575512 15.0697319,53.3328314" id="Fill-20"></path>
                <path d="M6.93052775,53.3328314 C6.52548063,53.5241403 6.19167958,53.7721822 5.92252775,54.0571665 C3.1294178,57.0785277 7.91214031,59.7515749 6.3869466,62.7293969 C5.03986806,65.0976691 2.78110366,64.4142346 2.34703037,64.2361194 C3.11490471,63.8310723 3.99228691,63.1727058 4.2165801,61.8559728 C4.55565864,59.482423 1.7480356,57.3925382 2.92095707,54.9451037 C3.27454869,54.0967476 4.55565864,52.575512 6.93052775,53.3328314" id="Fill-22"></path>
                <path d="M11.0097613,53.3328314 C10.5915204,53.5241403 10.2616775,53.7721822 9.99252565,54.0571665 C7.19413822,57.0785277 11.9874157,59.7515749 10.4463895,62.7293969 C9.10063037,65.0976691 6.85110157,64.4142346 6.42098639,64.2361194 C7.18490262,63.8310723 8.0583267,63.1727058 8.2826199,61.8559728 C8.62565654,59.482423 5.81407539,57.3925382 7.00019058,54.9451037 C7.3445466,54.0967476 8.62565654,52.575512 11.0097613,53.3328314" id="Fill-24"></path>
                <path d="M18.3500859,47.6725948 C17.9819812,47.4139979 17.598044,47.2490764 17.2193843,47.1593592 C13.2098136,46.2463539 13.2836984,51.7270241 9.94304921,51.8919455 C7.21063037,51.9117361 6.68024293,49.6186681 6.6116356,49.1542492 C7.35444188,49.6186681 8.35188691,50.0421864 9.6079288,49.5724901 C11.8337089,48.6858723 12.2413948,45.2093277 14.9553424,45.0061445 C15.8617508,44.8860817 17.8170597,45.2291183 18.3500859,47.6725948" id="Fill-26"></path>
                <path d="M14.286289,40.6260942 C13.9129068,40.3674974 13.5329277,40.2078534 13.1542681,40.1181361 C9.14073927,39.1998534 9.21462408,44.6805236 5.86737801,44.8507225 C3.15079162,44.8599581 2.61116859,42.5668901 2.54783874,42.1077487 C3.28009005,42.5668901 4.29204817,42.999644 5.54413194,42.5259895 C7.76331518,41.6433298 8.17627853,38.1628272 10.8796712,37.9636021 C11.7926764,37.8329843 13.7532628,38.1878953 14.286289,40.6260942" id="Fill-28"></path>
                <path d="M16.3156147,44.152511 C15.9475099,43.8873173 15.5688503,43.7276733 15.1888712,43.637956 C11.1700649,42.7249508 11.2492272,48.2016628 7.90330052,48.3652649 C5.17483979,48.3810974 4.64049424,46.0919874 4.58112251,45.6328461 C5.31469319,46.0919874 6.32269319,46.5260607 7.57873508,46.0510869 C9.79791832,45.1644691 10.2069236,41.678689 12.9195518,41.4794639 C13.8220021,41.359401 15.7825885,41.7077152 16.3156147,44.152511" id="Fill-30"></path>
                <path d="M24.878601,47.6725948 C24.9181822,47.2240084 24.8680461,46.8163225 24.7638157,46.4403016 C23.547355,42.5112126 18.8345592,45.3148775 17.0243812,42.501977 C15.642999,40.1468984 17.3634597,38.5425424 17.7276063,38.2522806 C17.6972607,39.1243853 17.8212817,40.2075895 18.8596272,41.0599037 C20.7384126,42.5362806 23.9616377,41.1601759 25.4921089,43.3991497 C26.0515225,44.1261236 26.7230827,45.9930346 24.878601,47.6725948" id="Fill-32"></path>
                <path d="M28.9475435,40.6260942 C28.9924021,40.1775079 28.9330304,39.7685026 28.8235225,39.393801 C27.6110199,35.464712 22.9035016,38.2723351 21.0880461,35.4554764 C19.7066639,33.104356 21.4324021,31.4907644 21.7965487,31.2070995 C21.7675225,32.0726073 21.8955016,33.1597696 22.9338471,34.0134031 C24.8139518,35.4897801 28.0305801,34.1083979 29.5570932,36.3526492 C30.1204649,37.0756649 30.7973026,38.9504921 28.9475435,40.6260942" id="Fill-34"></path>
                <path d="M26.9130723,44.152511 C26.9526534,43.7039246 26.8985592,43.2949194 26.7930094,42.9202178 C25.5818262,38.9858513 20.8690304,41.7934743 19.0535749,38.9805738 C17.6774702,36.6268147 19.3926534,35.0158618 19.7568,34.7269194 C19.7330513,35.595066 19.8610304,36.6809089 20.8980565,37.5345424 C22.7742031,39.0148775 25.9961089,37.6295372 27.5265801,39.8737885 C28.0912712,40.6020817 28.7628314,42.4716314 26.9130723,44.152511" id="Fill-36"></path>
                <polygon id="Fill-38" points="182.909516 38.1728545 169.215757 68.0144042 168.880637 68.7044356 168.846333 68.7783204 172.242396 68.7783204 182.895003 45.4333571 193.461851 68.5131267 193.567401 68.7783204 196.954228 68.7783204 182.959652 38.2718073"></polygon>
                <path d="M158.088836,43.2796147 L162.887391,43.2796147 C164.906029,43.2796147 166.462888,43.7334785 167.515747,44.6359288 C168.542218,45.513311 169.064689,46.7258136 169.064689,48.2272586 C169.064689,49.8025885 168.531663,51.0335623 167.485401,51.8871958 C166.403516,52.764578 164.767495,53.2144838 162.627474,53.2144838 L158.088836,53.2144838 L158.088836,43.2796147 Z M172.38159,48.1863581 C172.38159,45.8088503 171.549066,43.8984 169.909087,42.5156984 C168.283621,41.1554262 165.944375,40.4614366 162.961275,40.4614366 L154.923663,40.4614366 L154.923663,68.7580021 L158.088836,68.7580021 L158.088836,56.0273843 L162.772605,56.0273843 C165.859935,56.0273843 168.257234,55.3281173 169.893254,53.942777 C171.543788,52.5244524 172.38159,50.5915728 172.38159,48.1863581 Z" id="Fill-40"></path>
                <polygon id="Fill-42" points="202.723313 40.5964084 199.566057 40.5964084 199.566057 68.7583979 216.12813 68.7583979 216.12813 65.9560524 202.723313 65.9560524"></polygon>
                <polygon id="Fill-44" points="231.833139 52.8792314 221.743904 40.6117131 221.729391 40.5958806 218.846563 40.5958806 218.846563 68.7578702 222.00382 68.7578702 222.00382 45.683378 231.413579 57.2080901 231.788281 57.6368859 231.827862 57.687022 241.607045 45.6886555 241.607045 68.7578702 244.784092 68.7578702 244.784092 40.5958806 241.881474 40.5958806"></polygon>
                <path d="M61.7733801,66.1643812 C58.5409194,66.1643812 55.7676,65.0468733 53.5246681,62.8435225 C51.2962492,60.6494073 50.1576314,57.911711 50.1576314,54.7095958 C50.1576314,51.5035225 51.2962492,48.7552712 53.5246681,46.5558785 C55.7728775,44.3525277 58.5461969,43.2350199 61.7733801,43.2350199 C64.9900084,43.2350199 67.7422178,44.3525277 69.961401,46.5558785 C72.1766262,48.7552712 73.2980921,51.498245 73.2980921,54.7095958 C73.2980921,57.911711 72.1766262,60.6494073 69.961401,62.8435225 C67.7474953,65.0468733 64.9939665,66.1643812 61.7733801,66.1643812 M72.2557885,44.4673131 C69.3782387,41.6834387 65.8264901,40.2769885 61.702134,40.2769885 C57.5830555,40.2769885 54.0431812,41.6887162 51.185422,44.4712712 C48.3184272,47.2538262 46.865799,50.7000251 46.865799,54.7095958 C46.865799,58.7099309 48.3184272,62.1508524 51.185422,64.932088 C54.0431812,67.7106848 57.577778,69.1224126 61.702134,69.1224126 C65.8264901,69.1224126 69.3782387,67.7106848 72.2557885,64.932088 C75.1333382,62.1508524 76.5886052,58.7099309 76.5886052,54.7095958 C76.5886052,50.7000251 75.1333382,47.2538262 72.2557885,44.4673131" id="Fill-46"></path>
                <path d="M117.219185,54.6495644 C116.270557,54.1310513 114.77439,53.4832398 112.644924,52.6757843 C110.690934,51.9369361 109.399269,51.1782974 108.810829,50.4157005 C108.236903,49.6636586 107.94796,48.8100251 107.94796,47.8877843 C107.94796,46.5908419 108.442725,45.4786115 109.424337,44.5906743 C110.416505,43.6935016 111.679143,43.2343602 113.170034,43.2343602 C114.761196,43.2343602 116.715185,43.9072398 118.979227,45.2345277 L119.677175,45.6633236 L119.752379,45.7134597 L119.752379,42.2171246 L119.493782,42.0429675 C117.353761,40.8713654 115.163604,40.2763288 112.980044,40.2763288 C110.696212,40.2763288 108.72639,41.0296901 107.115437,42.516622 C105.483374,44.0167476 104.657447,45.8533131 104.657447,47.9814597 C104.657447,49.5172084 105.000484,50.7996377 105.689196,51.7970827 C106.35284,52.7641822 107.185363,53.5267791 108.15774,54.062444 C109.074704,54.5651246 110.605175,55.2274492 112.71617,56.0309466 C114.716337,56.8040984 116.040986,57.6221089 116.659772,58.4559518 C117.27328,59.2884754 117.58729,60.2344649 117.58729,61.2728105 C117.58729,62.6396796 117.08329,63.8020461 116.092442,64.7374806 C115.089719,65.6808314 113.837636,66.1650408 112.366536,66.1650408 C110.556358,66.1650408 108.362243,65.2230094 105.838285,63.3719309 L105.104714,62.8177948 L105.025552,62.7544649 L105.025552,66.3101717 L105.07041,66.5291874 L105.075688,66.548978 L105.249845,66.6677215 C107.703876,68.2945068 110.138117,69.1230723 112.486599,69.1230723 C114.810013,69.1230723 116.808861,68.3499204 118.430369,66.8326429 C120.055835,65.3021717 120.879123,63.396999 120.879123,61.1778157 C120.879123,59.5127686 120.520253,58.1313864 119.807793,57.0692921 C119.09929,56.0164335 118.227185,55.2037005 117.219185,54.6495644" id="Fill-48"></path>
                <polygon id="Fill-50" points="124.241277 68.7788482 127.358953 68.7788482 127.358953 40.6260942 124.241277 40.6260942"></polygon>
                <path d="M142.824628,54.6495644 C141.876,54.1310513 140.375874,53.4871979 138.239812,52.6757843 C136.280545,51.9369361 134.994157,51.1782974 134.410995,50.4157005 C133.837068,49.6728942 133.548126,48.8245382 133.548126,47.8877843 C133.548126,46.5816063 134.041571,45.473334 135.019225,44.5906743 C136.011393,43.6935016 137.274031,43.2343602 138.764921,43.2343602 C140.360042,43.2343602 142.315351,43.9072398 144.574115,45.2345277 L145.272063,45.6633236 L145.347267,45.7134597 L145.347267,42.2171246 L145.08867,42.0429675 C142.948649,40.8713654 140.759812,40.2763288 138.574932,40.2763288 C136.291099,40.2763288 134.321277,41.0296901 132.705047,42.516622 C131.079581,44.0167476 130.257613,45.8533131 130.257613,47.9814597 C130.257613,49.5132503 130.600649,50.7996377 131.284084,51.7970827 C131.947728,52.7641822 132.780251,53.5267791 133.752628,54.062444 C134.664314,54.5611665 136.197424,55.2234911 138.311058,56.0309466 C140.311225,56.8040984 141.637194,57.6221089 142.25466,58.4559518 C142.868168,59.2831979 143.182178,60.2291874 143.182178,61.2728105 C143.182178,62.6344021 142.679497,63.8020461 141.68733,64.7374806 C140.67933,65.6808314 139.428565,66.1650408 137.966702,66.1650408 C136.151246,66.1650408 133.957131,65.2230094 131.433173,63.3666534 L130.700921,62.8283497 L130.62044,62.768978 L130.62044,66.3101717 L130.670576,66.5529361 L130.85001,66.6677215 C133.293487,68.2945068 135.727728,69.1230723 138.081487,69.1230723 C140.410178,69.1230723 142.410346,68.3499204 144.025257,66.8326429 C145.652042,65.2968942 146.47533,63.396999 146.47533,61.1778157 C146.47533,59.5127686 146.115141,58.1313864 145.402681,57.0692921 C144.71001,56.0362241 143.845822,55.219533 142.824628,54.6495644" id="Fill-52"></path>
                <polygon id="Fill-53" points="90.0149277 38.566555 89.9647916 38.4662827 76.414844 67.9951414 76.0797236 68.6838534 76.0454199 68.7524607 79.4124565 68.7524607 89.945001 45.6832461 100.412896 68.5281675 100.517127 68.728712 100.527682 68.7524607 103.857776 68.7524607 91.0176503 40.7765026"></polygon>
                <path d="M91.1809885,9.34642932 L97.0165696,9.34642932 L97.0165696,16.7151204 C94.8778681,17.6452775 92.7523602,18.108377 90.6479623,18.108377 C87.7651351,18.108377 85.4667895,17.2679372 83.7450094,15.5870576 C82.0258681,13.9074974 81.1616796,11.8347644 81.1616796,9.37149738 C81.1616796,6.77497382 82.0548942,4.61384293 83.8413236,2.88810471 C85.621156,1.16236649 87.8601298,0.299497382 90.5490094,0.299497382 C91.5266639,0.299497382 92.4528628,0.40504712 93.3368419,0.616146597 C94.2142241,0.828565445 95.3264545,1.2177801 96.6669361,1.78115183 L96.6669361,4.31962304 C94.5928838,3.11767539 92.5373026,2.51340314 90.4975539,2.51340314 C88.5976586,2.51340314 86.9972607,3.16253403 85.6910827,4.4568377 C84.3901822,5.74982199 83.7410513,7.33966492 83.7410513,9.22108901 C83.7410513,11.1961885 84.3901822,12.8097801 85.6910827,14.0645026 C86.9972607,15.315267 88.6741822,15.9419686 90.7218471,15.9419686 C91.715334,15.9419686 92.9080461,15.7150366 94.2933864,15.258534 L94.5282346,15.1833298 L94.5282346,11.5629738 L91.1809885,11.5629738 L91.1809885,9.34642932 Z" id="Fill-54"></path>
                <path d="M107.019914,2.63874346 L106.27315,2.63874346 L106.27315,8.12732984 L107.219139,8.12732984 C108.480459,8.12732984 109.344647,8.02046073 109.813024,7.8027644 C110.28272,7.58770681 110.645548,7.26182199 110.909422,6.82774869 C111.170658,6.39103665 111.298637,5.89495288 111.298637,5.33949738 C111.298637,4.79327749 111.154825,4.29719372 110.865883,3.85256545 C110.575621,3.40925654 110.167935,3.09524607 109.637548,2.91317277 C109.115076,2.73109948 108.237694,2.63874346 107.019914,2.63874346 Z M103.783495,17.9091518 L103.783495,0.523790576 L108.142699,0.523790576 C109.898783,0.523790576 111.293359,0.960502618 112.326427,1.83128796 C113.359495,2.70075393 113.876689,3.88027225 113.876689,5.36324607 C113.876689,6.37652356 113.62337,7.25258639 113.11937,7.99011518 C112.610092,8.73028272 111.887076,9.2817801 110.941087,9.6459267 C111.493904,10.0113927 112.037485,10.5087958 112.570511,11.1394555 C113.099579,11.7701152 113.847663,12.8691518 114.809485,14.4378848 C115.413757,15.4247749 115.901925,16.1662618 116.266071,16.6649843 L117.189631,17.9091518 L114.226323,17.9091518 L113.469003,16.7652565 C113.443935,16.7217173 113.393799,16.6531099 113.318595,16.5528377 L112.834385,15.8667644 L112.062553,14.5975288 L111.22871,13.2385759 C110.715474,12.5261152 110.247097,11.9561466 109.818302,11.535267 C109.389506,11.1143874 109.005569,10.8069738 108.661213,10.6235812 C108.316857,10.4362304 107.733694,10.3438743 106.920961,10.3438743 L106.27315,10.3438743 L106.27315,17.9091518 L103.783495,17.9091518 Z" id="Fill-55"></path>
                <path d="M131.368919,10.5408565 L128.566574,4.24481466 L125.962134,10.5408565 L131.368919,10.5408565 Z M127.71294,0.425233508 L129.463747,0.425233508 L137.258595,17.9095476 L134.709569,17.9095476 L132.395391,12.757401 L124.975244,12.757401 L122.804877,17.9095476 L120.245296,17.9095476 L127.71294,0.425233508 Z" id="Fill-56"></path>
                <polygon id="Fill-57" points="156.03497 0.524450262 158.397964 0.524450262 158.397964 17.9098115 156.259263 17.9098115 144.632959 4.51818848 144.632959 17.9098115 142.295032 17.9098115 142.295032 0.524450262 144.309713 0.524450262 156.03497 14.0269005"></polygon>
                <path d="M170.805864,2.7386199 L167.694785,2.7386199 L167.694785,15.6697822 L170.881068,15.6697822 C172.122597,15.6697822 173.089696,15.5853424 173.778408,15.4125047 C174.465801,15.2436251 175.039728,15.0285675 175.504147,14.7673319 C175.963288,14.504777 176.382848,14.1841696 176.766785,13.8028712 C177.992482,12.5573843 178.60599,10.9846932 178.60599,9.08743665 C178.60599,7.21920628 177.977969,5.69533194 176.71533,4.51845236 C176.25223,4.08042094 175.719204,3.71891309 175.116251,3.43656754 C174.517257,3.15422199 173.94333,2.96819058 173.405026,2.87583455 C172.866723,2.78611728 171.997257,2.7386199 170.805864,2.7386199 Z M165.20645,17.883688 L165.20645,0.524714136 L171.06578,0.524714136 C173.428775,0.524714136 175.299644,0.878305759 176.675749,1.58812775 C178.057131,2.29794974 179.149571,3.3402534 179.962304,4.71767749 C180.776356,6.09510157 181.184042,7.5965466 181.184042,9.22201257 C181.184042,10.3830597 180.959749,11.4952901 180.509843,12.5573843 C180.062576,13.6207979 179.424,14.5535937 178.595435,15.3584105 C177.748398,16.1882953 176.766785,16.8136775 175.644,17.2358764 C174.990911,17.4957927 174.386639,17.667311 173.839099,17.7543895 C173.295518,17.8414681 172.247937,17.883688 170.706911,17.883688 L165.20645,17.883688 Z" id="Fill-58"></path>
                <polygon id="Fill-59" points="0.414942408 97.7919644 10.9408901 97.7919644 10.9408901 99.3976398 6.5473822 99.3976398 6.5473822 110.409116 4.73456545 110.409116 4.73456545 99.3976398 0.414942408 99.3976398"></polygon>
                <polygon id="Fill-60" points="21.5287162 97.8100398 23.3322974 97.8100398 23.3322974 110.41004 21.5287162 110.41004 21.5287162 104.926731 14.4489675 104.926731 14.4489675 110.41004 12.6453864 110.41004 12.6453864 97.8100398 14.4489675 97.8100398 14.4489675 103.257726 21.5287162 103.257726"></polygon>
                <polygon id="Fill-61" points="26.1103665 97.8100398 33.253445 97.8100398 33.253445 99.4157152 27.9139476 99.4157152 27.9139476 103.257726 33.0726911 103.257726 33.0726911 104.872637 27.9139476 104.872637 27.9139476 108.785893 33.4249634 108.785893 33.4249634 110.391569 26.1103665 110.391569"></polygon>
                <path d="M51.3370178,107.487499 L51.3370178,109.471835 C50.0150073,110.193531 48.4871749,110.553719 46.7548398,110.553719 C45.3483895,110.553719 44.1543581,110.271374 43.1740649,109.706683 C42.1950911,109.140672 41.4193005,108.362243 40.8480126,107.370075 C40.2767246,106.377908 39.9904209,105.305259 39.9904209,104.150808 C39.9904209,102.316882 40.6448293,100.774536 41.9523267,99.5237717 C43.2598241,98.2730073 44.8734157,97.6476251 46.7917822,97.6476251 C48.1137927,97.6476251 49.5835728,97.9933005 51.2011225,98.6846513 L51.2011225,100.624128 C49.7287037,99.7823686 48.2879497,99.361489 46.8814995,99.361489 C45.4381068,99.361489 44.2401173,99.8166723 43.2875309,100.727039 C42.3349445,101.638725 41.8573319,102.779981 41.8573319,104.150808 C41.8573319,105.53351 42.3270283,106.669489 43.2651016,107.560065 C44.2031749,108.449321 45.4024838,108.89395 46.8630283,108.89395 C48.3908607,108.89395 49.8817508,108.425573 51.3370178,107.487499" id="Fill-62"></path>
                <path d="M60.6884607,105.07041 L58.6553089,100.506704 L56.7712461,105.07041 L60.6884607,105.07041 Z M58.0391623,97.7373424 L59.3070785,97.7373424 L64.9553089,110.409908 L63.1095079,110.409908 L61.4299476,106.676086 L56.0548272,106.676086 L54.4794974,110.409908 L52.6270995,110.409908 L58.0391623,97.7373424 Z" id="Fill-63"></path>
                <polygon id="Fill-64" points="76.3470283 97.8100398 78.0608921 97.8100398 78.0608921 110.41004 76.509311 110.41004 68.0851225 100.706061 68.0851225 110.41004 66.3897298 110.41004 66.3897298 97.8100398 67.8515937 97.8100398 76.3470283 107.59582"></polygon>
                <path d="M91.6165131,107.487499 L91.6165131,109.471835 C90.2945026,110.193531 88.7666702,110.553719 87.0343351,110.553719 C85.6278848,110.553719 84.4338534,110.271374 83.4535602,109.706683 C82.4745864,109.140672 81.6987958,108.362243 81.1275079,107.370075 C80.5562199,106.377908 80.2699162,105.305259 80.2699162,104.150808 C80.2699162,102.316882 80.9243246,100.774536 82.231822,99.5237717 C83.5393194,98.2730073 85.152911,97.6476251 87.0712775,97.6476251 C88.393288,97.6476251 89.8630681,97.9933005 91.4806178,98.6846513 L91.4806178,100.624128 C90.008199,99.7823686 88.567445,99.361489 87.1609948,99.361489 C85.7176021,99.361489 84.5196126,99.8166723 83.5670262,100.727039 C82.6144398,101.638725 82.1368272,102.779981 82.1368272,104.150808 C82.1368272,105.53351 82.6065236,106.669489 83.5445969,107.560065 C84.4826702,108.449321 85.6819791,108.89395 87.1425236,108.89395 C88.670356,108.89395 90.1612461,108.425573 91.6165131,107.487499" id="Fill-65"></path>
                <path d="M102.601734,97.8100398 L104.414551,97.8100398 L104.414551,104.962354 C104.414551,105.930773 104.343305,106.660385 104.202132,107.15383 C104.060959,107.647275 103.886802,108.0576 103.679661,108.384804 C103.472519,108.713328 103.217881,109.006228 102.917064,109.264825 C101.919619,110.123736 100.61476,110.553851 99.002488,110.553851 C97.3611895,110.553851 96.0444565,110.126375 95.052289,109.272741 C94.7514723,109.008867 94.4981529,108.713328 94.2910115,108.384804 C94.0825508,108.0576 93.9123518,107.655192 93.7764565,107.181537 C93.6405613,106.706563 93.5732733,105.959799 93.5732733,104.943883 L93.5732733,97.8100398 L95.3860901,97.8100398 L95.3860901,104.962354 C95.3860901,106.14715 95.5219853,106.970438 95.7924565,107.433537 C96.0629277,107.896637 96.4745717,108.26738 97.0273885,108.547087 C97.5815246,108.826794 98.2332942,108.966647 98.9853361,108.966647 C100.055347,108.966647 100.927451,108.68694 101.600331,108.127527 C101.955242,107.82671 102.2112,107.473118 102.366886,107.064113 C102.523891,106.655108 102.601734,105.954521 102.601734,104.962354 L102.601734,97.8100398 Z" id="Fill-66"></path>
                <polygon id="Fill-67" points="116.924174 97.8100398 118.636718 97.8100398 118.636718 110.41004 117.086457 110.41004 108.662268 100.706061 108.662268 110.41004 106.966875 110.41004 106.966875 97.8100398 108.428739 97.8100398 116.924174 107.59582"></polygon>
                <polygon id="Fill-68" points="126.483814 97.8100398 133.203374 97.8100398 133.203374 99.4157152 128.287395 99.4157152 128.287395 102.93316 133.203374 102.93316 133.203374 104.538836 128.287395 104.538836 128.287395 110.41004 126.483814 110.41004"></polygon>
                <path d="M140.887395,105.07041 L138.855562,100.506704 L136.968861,105.07041 L140.887395,105.07041 Z M138.236777,97.7373424 L139.504693,97.7373424 L145.154243,110.409908 L143.308442,110.409908 L141.628882,106.676086 L136.253761,106.676086 L134.679751,110.409908 L132.826034,110.409908 L138.236777,97.7373424 Z" id="Fill-69"></path>
                <polygon id="Fill-70" points="156.554934 97.8100398 158.241091 97.8100398 158.241091 110.41004 156.428274 110.41004 156.428274 100.605788 152.554599 105.476909 152.222117 105.476909 148.302264 100.605788 148.302264 110.41004 146.498683 110.41004 146.498683 97.8100398 148.20595 97.8100398 152.393636 102.984616"></polygon>
                <polygon id="Fill-71" points="160.972586 110.410304 162.776168 110.410304 162.776168 97.8103037 160.972586 97.8103037"></polygon>
                <polygon id="Fill-72" points="165.57284 97.8100398 167.376421 97.8100398 167.376421 108.768741 173.049719 108.768741 173.049719 110.41004 165.57284 110.41004"></polygon>
                <polygon id="Fill-73" points="180.178681 97.8100398 182.367518 97.8100398 177.714094 103.744574 177.714094 110.41004 175.864335 110.41004 175.864335 103.744574 171.210911 97.8100398 173.389194 97.8100398 176.760188 102.153412"></polygon>
                <path d="M191.287659,99.3432817 L190.746716,99.3432817 L190.746716,103.321187 L191.43147,103.321187 C192.345795,103.321187 192.972496,103.243345 193.312894,103.086339 C193.651973,102.929334 193.915847,102.694486 194.107156,102.377837 C194.294507,102.062507 194.390821,101.703638 194.390821,101.29991 C194.390821,100.904098 194.283952,100.54391 194.074172,100.223303 C193.864392,99.9013759 193.568852,99.6731246 193.186235,99.5411874 C192.803617,99.4092503 192.171638,99.3432817 191.287659,99.3432817 Z M188.943135,110.410172 L188.943135,97.8101717 L192.099072,97.8101717 C193.373585,97.8101717 194.385543,98.1255016 195.134947,98.7574806 C195.881711,99.3881403 196.257732,100.241774 196.257732,101.318381 C196.257732,102.051952 196.074339,102.68657 195.707554,103.220915 C195.339449,103.75658 194.814339,104.15635 194.128266,104.421543 C194.531994,104.685418 194.925166,105.046926 195.310423,105.503428 C195.69568,105.959931 196.236622,106.756831 196.93325,107.89281 C197.372601,108.609229 197.724873,109.147533 197.988748,109.507721 L198.65635,110.410172 L196.509732,110.410172 L195.960873,109.578968 C195.942402,109.549941 195.906779,109.498486 195.852685,109.42592 L195.500413,108.929837 L194.943638,108.008915 L194.339365,107.025983 C193.965983,106.50879 193.624266,106.097146 193.315533,105.791051 C193.005481,105.484957 192.725774,105.263303 192.475093,105.128727 C192.225732,104.994151 191.806172,104.925543 191.215093,104.925543 L190.746716,104.925543 L190.746716,110.410172 L188.943135,110.410172 Z" id="Fill-74"></path>
                <polygon id="Fill-75" points="200.043933 97.8100398 207.187012 97.8100398 207.187012 99.4157152 201.847514 99.4157152 201.847514 103.257726 207.006258 103.257726 207.006258 104.872637 201.847514 104.872637 201.847514 108.785893 207.35853 108.785893 207.35853 110.391569 200.043933 110.391569"></polygon>
                <path d="M212.400113,105.13031 L211.029286,104.297786 C210.170375,103.772676 209.558186,103.256802 209.19404,102.747525 C208.829893,102.239566 208.64782,101.655085 208.64782,100.99408 C208.64782,100.001912 208.992176,99.1957759 209.680888,98.5769906 C210.3696,97.9568859 211.264134,97.6481529 212.36449,97.6481529 C213.417349,97.6481529 214.381809,97.9423728 215.259192,98.5334513 L215.259192,100.581116 C214.351464,99.7076921 213.373809,99.2709801 212.327548,99.2709801 C211.739108,99.2709801 211.254898,99.4081948 210.876239,99.6799853 C210.497579,99.9530953 210.30759,100.301409 210.30759,100.726247 C210.30759,101.103587 210.447443,101.457179 210.72583,101.787022 C211.004218,102.115546 211.454124,102.46254 212.072909,102.824048 L213.450333,103.63942 C214.987401,104.557703 215.755275,105.725347 215.755275,107.144991 C215.755275,108.15431 215.417516,108.976279 214.739359,109.606938 C214.06516,110.238917 213.185139,110.554247 212.101935,110.554247 C210.857768,110.554247 209.724427,110.171629 208.701914,109.406394 L208.701914,107.114645 C209.67693,108.349577 210.803673,108.967043 212.084783,108.967043 C212.649474,108.967043 213.12049,108.810038 213.495192,108.494708 C213.871213,108.180697 214.059883,107.786205 214.059883,107.312551 C214.059883,106.545996 213.507066,105.819022 212.400113,105.13031" id="Fill-76"></path>
                <path d="M223.993564,99.3432817 C222.551491,99.3432817 221.368015,99.7945068 220.440496,100.695638 C219.511659,101.598088 219.04724,102.749899 219.04724,104.151072 C219.04724,105.508706 219.512978,106.639407 220.444454,107.541858 C221.375931,108.442988 222.539617,108.894214 223.93947,108.894214 C225.344601,108.894214 226.518842,108.435072 227.458235,107.514151 C228.398947,106.594549 228.868643,105.449334 228.868643,104.078507 C228.868643,102.743303 228.398947,101.620517 227.458235,100.710151 C226.518842,99.7984649 225.363072,99.3432817 223.993564,99.3432817 M223.920999,97.6294178 C225.868392,97.6294178 227.48858,98.2455644 228.784203,99.479177 C230.078507,100.71147 230.727638,102.256454 230.727638,104.11413 C230.727638,105.971805 230.073229,107.510193 228.765732,108.727973 C227.459554,109.945753 225.811659,110.553983 223.823365,110.553983 C221.92479,110.553983 220.341543,109.945753 219.077585,108.727973 C217.812308,107.510193 217.180329,105.984999 217.180329,104.151072 C217.180329,102.268329 217.816266,100.71147 219.090779,99.479177 C220.365292,98.2455644 221.974926,97.6294178 223.920999,97.6294178" id="Fill-77"></path>
                <path d="M235.344911,99.3432817 L234.803969,99.3432817 L234.803969,103.321187 L235.488723,103.321187 C236.403047,103.321187 237.029749,103.243345 237.370147,103.086339 C237.709225,102.929334 237.973099,102.694486 238.164408,102.377837 C238.351759,102.062507 238.448073,101.703638 238.448073,101.29991 C238.448073,100.904098 238.341204,100.54391 238.131424,100.223303 C237.921644,99.9013759 237.626105,99.6731246 237.243487,99.5411874 C236.860869,99.4092503 236.22889,99.3432817 235.344911,99.3432817 Z M233.000387,110.410172 L233.000387,97.8101717 L236.156325,97.8101717 C237.430838,97.8101717 238.442796,98.1255016 239.192199,98.7574806 C239.938963,99.3881403 240.314984,100.241774 240.314984,101.318381 C240.314984,102.051952 240.131592,102.68657 239.764806,103.220915 C239.396702,103.75658 238.871592,104.15635 238.185518,104.421543 C238.589246,104.685418 238.982419,105.046926 239.367675,105.503428 C239.752932,105.959931 240.293874,106.756831 240.990503,107.89281 C241.429853,108.609229 241.782126,109.147533 242.046,109.507721 L242.713602,110.410172 L240.566984,110.410172 L240.018126,109.578968 C239.999654,109.549941 239.964031,109.498486 239.909937,109.42592 L239.557665,108.929837 L239.00089,108.008915 L238.396618,107.025983 C238.023236,106.50879 237.681518,106.097146 237.372785,105.791051 C237.062733,105.484957 236.783026,105.263303 236.532346,105.128727 C236.282984,104.994151 235.863424,104.925543 235.272346,104.925543 L234.803969,104.925543 L234.803969,110.410172 L233.000387,110.410172 Z" id="Fill-78"></path>
                <polygon id="Fill-79" points="241.370877 97.7919644 251.896825 97.7919644 251.896825 99.3976398 247.503317 99.3976398 247.503317 110.409116 245.690501 110.409116 245.690501 99.3976398 241.370877 99.3976398"></polygon>
            </g>
        </g>
    </g>
</svg>