<?xml version="1.0" encoding="UTF-8"?>
<svg width="256px" height="119px" viewBox="0 0 256 119" version="1.1" xmlns="http://www.w3.org/2000/svg" xmlns:xlink="http://www.w3.org/1999/xlink">
    <!-- Generator: Sketch 49.1 (51147) - http://www.bohemiancoding.com/sketch -->
    <title>gos copy</title>
    <desc>Created with Sketch.</desc>
    <defs></defs>
    <g id="Page-1" stroke="none" stroke-width="1" fill="none" fill-rule="evenodd">
        <g id="New-Hotspot-sens" transform="translate(-593.000000, -57.000000)" fill="#FEFEFE" fill-rule="nonzero">
            <g id="gos-copy" transform="translate(592.000000, 56.433155)">
                <path d="M29.2448134,60.4973877 C29.6983428,60.299484 30.0487973,60.025992 30.3429043,59.7208904 C33.3691824,56.4472326 28.1852037,53.551516 29.8453963,50.3232112 C31.3090594,47.7614572 33.7512465,48.4980989 34.2157706,48.680885 C33.3829257,49.1302914 32.4387599,49.8366979 32.1996262,51.2742487 C31.8271824,53.8346283 34.8713267,56.1091471 33.5918241,58.7602326 C33.2193802,59.6686658 31.8271824,61.3261096 29.2448134,60.4973877" id="Fill-2"></path>
                <path d="M38.0678845,60.4973877 C38.5131679,60.299484 38.8677455,60.025992 39.1591037,59.7208904 C42.1936278,56.4472326 37.0041519,53.551516 38.6643444,50.3232112 C40.1238845,47.7614572 42.5646973,48.4980989 43.0292214,48.680885 C42.1977508,49.1302914 41.2549594,49.8366979 41.0158257,51.2742487 C40.6420075,53.8346283 43.6889005,56.1091471 42.4066492,58.7602326 C42.0300824,59.6686658 40.6420075,61.3261096 38.0678845,60.4973877" id="Fill-4"></path>
                <path d="M33.6564176,60.4973877 C34.1017011,60.299484 34.4658989,60.025992 34.7517599,59.7208904 C37.7835353,56.4472326 32.596808,53.551516 34.2570005,50.3232112 C35.713792,47.7614572 38.1559791,48.4980989 38.6273749,48.680885 C37.7959043,49.1302914 36.8489898,49.8366979 36.6043588,51.2742487 C36.244284,53.8346283 39.2760594,56.1091471 38.0034283,58.7602326 C37.6241128,59.6686658 36.2374123,61.3261096 33.6564176,60.4973877" id="Fill-6"></path>
                <path d="M25.7096203,66.6416118 C26.1109251,66.9288471 26.5273476,67.1006385 26.9382727,67.2009647 C31.2825348,68.1836118 31.2014492,62.2561198 34.8296845,62.070585 C37.7762513,62.0527187 38.3493476,64.5416332 38.4318075,65.0363925 C37.6333209,64.5416332 36.5393529,64.0729861 35.1773904,64.5856118 C32.7695615,65.5407722 32.3229037,69.316061 29.3928289,69.5345797 C28.4074332,69.6706385 26.2827166,69.291323 25.7096203,66.6416118" id="Fill-8"></path>
                <path d="M30.1225989,74.2783599 C30.5129091,74.5600979 30.9320802,74.7332636 31.341631,74.8335898 C35.6913904,75.8244829 35.6116791,69.8846219 39.2316684,69.7073332 C42.180984,69.6935898 42.7637005,72.172884 42.8365401,72.6772636 C42.0366791,72.172884 40.9509572,71.7083599 39.5889947,72.2223599 C37.1784171,73.184392 36.7358824,76.9473118 33.7989358,77.1672048 C32.8162888,77.3032636 30.6888235,76.9211995 30.1225989,74.2783599" id="Fill-10"></path>
                <path d="M27.9161096,70.4626658 C28.3160401,70.7471524 28.7214679,70.9175695 29.1378904,71.0192701 C33.4876497,72.0087888 33.4010668,66.0689278 37.0293021,65.8888904 C39.9772433,65.8737727 40.5599599,68.3599385 40.6327995,68.8574465 C39.8329385,68.3599385 38.7458422,67.8857941 37.3866283,68.3970455 C34.9801738,69.3618262 34.529393,73.1343663 31.5965695,73.352885 C30.6139225,73.4848209 28.4892059,73.1151257 27.9161096,70.4626658" id="Fill-12"></path>
                <path d="M18.6246663,66.6282807 C18.5793134,67.1189171 18.6329123,67.5655749 18.7593508,67.9737513 C20.0704631,72.2245588 25.1651102,69.1886604 27.1386503,72.2314305 C28.6298,74.7863128 26.7662064,76.5344626 26.3703989,76.8436872 C26.4020086,75.906393 26.2604524,74.7244679 25.1389979,73.8009171 C23.0994898,72.1956979 19.6210567,73.6964679 17.9581155,71.2611524 C17.3520353,70.4805321 16.6236396,68.4520187 18.6246663,66.6282807" id="Fill-14"></path>
                <path d="M14.2116877,74.268877 C14.1690834,74.7512674 14.221308,75.1951765 14.3463722,75.6115989 C15.6588588,79.8679037 20.7672492,76.822385 22.7256717,79.8720267 C24.2250674,82.4227861 22.3614738,84.1613155 21.9629176,84.4732888 C21.9945273,83.5387433 21.8570941,82.3609412 20.7301422,81.4373904 C18.6975059,79.8362941 15.2135754,81.3329412 13.5533829,78.8962513 C12.9473027,78.1170053 12.2134096,76.0829947 14.2116877,74.268877" id="Fill-16"></path>
                <path d="M16.418177,70.4533203 C16.3728241,70.9398337 16.4277973,71.3837428 16.5459898,71.7864219 C17.8653481,76.0468497 22.9723642,73.009577 24.932161,76.0564701 C26.4233107,78.6017321 24.5638401,80.3471332 24.1666583,80.6646037 C24.2051396,79.7176893 24.0635834,78.5453845 22.9407545,77.6163364 C20.9026209,76.0166144 17.4104444,77.5146358 15.7571235,75.0834433 C15.1441717,74.2918283 14.4130273,72.263315 16.418177,70.4533203" id="Fill-18"></path>
                <path d="M15.0908476,60.5027476 C14.6441898,60.7088973 14.279992,60.9782663 13.9886337,61.2833679 C10.9651043,64.5584 16.1408369,67.4568652 14.4902647,70.6810471 C13.0293503,73.2455497 10.5885374,72.5061594 10.1171417,72.3137529 C10.9458636,71.8767155 11.8982754,71.1634374 12.1387834,69.735507 C12.5071043,67.165507 9.46845722,64.8992342 10.7369652,62.249523 C11.1149064,61.3300952 12.5112273,59.6781487 15.0908476,60.5027476" id="Fill-20"></path>
                <path d="M6.26901337,60.5027476 C5.82510428,60.7088973 5.46365508,60.9782663 5.17229679,61.2833679 C2.14601872,64.5584 7.32862299,67.4568652 5.67942513,70.6810471 C4.21576203,73.2455497 1.76670321,72.5061594 1.29530749,72.3137529 C2.12952674,71.8767155 3.08056417,71.1634374 3.32382086,69.735507 C3.69214171,67.165507 0.649371658,64.8992342 1.92337701,62.249523 C2.30269251,61.3300952 3.69214171,59.6781487 6.26901337,60.5027476" id="Fill-22"></path>
                <path d="M10.6832289,60.5027476 C10.2283251,60.7088973 9.87787059,60.9782663 9.5865123,61.2833679 C6.5547369,64.5584 11.7359668,67.4568652 10.078523,70.6810471 C8.61760856,73.2455497 6.17542139,72.5061594 5.71227166,72.3137529 C6.53961925,71.8767155 7.49065668,71.1634374 7.72979037,69.735507 C8.10223422,67.165507 5.05121818,64.8992342 6.33759251,62.249523 C6.71003636,61.3300952 8.10223422,59.6781487 10.6832289,60.5027476" id="Fill-24"></path>
                <path d="M18.6379973,54.3706176 C18.2380668,54.0875053 17.8257674,53.9115909 17.4093449,53.8140134 C13.0650829,52.8203717 13.1475428,58.7602326 9.52755348,58.9375214 C6.57136631,58.960885 5.9913984,56.4747193 5.92130749,55.9744626 C6.72116845,56.4747193 7.80139305,56.9364947 9.16335561,56.4266176 C11.5739332,55.4700829 12.0247139,51.6989171 14.9575374,51.4749011 C15.9429332,51.3470882 18.0649011,51.7195321 18.6379973,54.3706176" id="Fill-26"></path>
                <path d="M14.2345016,46.7353813 C13.8276995,46.4508947 13.4154,46.2777289 13.0031005,46.1801513 C8.65608984,45.1906326 8.73580107,51.1277449 5.11031444,51.3077824 C2.16649626,51.3215257 1.58240535,48.8353599 1.51368877,48.3378519 C2.31354973,48.8353599 3.39927166,49.3026326 4.75985989,48.790007 C7.16356578,47.8362209 7.61572086,44.0650551 10.5430471,43.8465364 C11.5311914,43.7063545 13.6545337,44.089793 14.2345016,46.7353813" id="Fill-28"></path>
                <path d="M16.4342567,50.550938 C16.0315775,50.2692 15.6220267,50.0905369 15.2124759,49.995708 C10.8558449,49.004815 10.9424278,54.9419273 7.31694118,55.1219647 C4.36625134,55.135708 3.78765775,52.6564139 3.71894118,52.1602802 C4.51055615,52.6564139 5.6017754,53.125061 6.96373797,52.611061 C9.37019251,51.6490289 9.81959893,47.8737401 12.7537968,47.6593444 C13.7295722,47.5260342 15.8542888,47.9053497 16.4342567,50.550938" id="Fill-30"></path>
                <path d="M25.7096203,54.3706176 C25.7604706,53.8799813 25.7013743,53.4388209 25.5845561,53.0306444 C24.2638235,48.7770882 19.1609305,51.8157353 17.1970107,48.7674679 C15.7044866,46.2112112 17.5680802,44.4726818 17.969385,44.1648316 C17.9309037,45.1021257 18.0655882,46.2771791 19.1925401,47.2034786 C21.2320481,48.8032005 24.7159786,47.3120508 26.3761711,49.7363717 C26.9822513,50.5224893 27.7161444,52.5468797 25.7096203,54.3706176" id="Fill-32"></path>
                <path d="M30.1225989,46.7353813 C30.1693262,46.2461193 30.1102299,45.8022102 29.9851658,45.3967824 C28.6713048,41.1404775 23.5725348,44.1791246 21.6058663,41.1267342 C20.1133422,38.5842209 21.9783102,36.8360711 22.371369,36.5240979 C22.3397594,37.465515 22.4799412,38.6433171 23.6041444,39.5668679 C25.6422781,41.1679642 29.1248342,39.6713171 30.7850267,42.1052583 C31.391107,42.8845043 32.1277487,44.918515 30.1225989,46.7353813" id="Fill-34"></path>
                <path d="M27.9161096,50.555061 C27.9587139,50.0699219 27.905115,49.6218898 27.7855481,49.2178364 C26.4716872,44.9519112 21.3660455,47.9974299 19.399377,44.9477882 C17.9082273,42.3997775 19.7676979,40.6543765 20.1648797,40.3396545 C20.1346444,41.2810717 20.2748262,42.4588738 21.3990294,43.3824246 C23.4357888,44.9876439 26.9197193,43.4868738 28.5799118,45.916692 C29.185992,46.7069326 29.9212594,48.731323 27.9161096,50.555061" id="Fill-36"></path>
                <path d="M178.661727,61.9482695 C177.647471,61.3889166 175.977658,60.6660182 173.70039,59.8056866 C171.616904,59.019569 170.183476,58.1716064 169.560904,57.3634995 C168.938332,56.5567668 168.62361,55.637339 168.62361,54.6395743 C168.62361,53.2391305 169.155476,52.0407134 170.215086,51.0786813 C171.289813,50.1097775 172.649027,49.6136439 174.263866,49.6136439 C175.992775,49.6136439 178.106497,50.3461626 180.554182,51.7919594 L181.34992,52.2716011 L181.436503,52.3197027 L181.436503,48.7038364 L181.363663,48.4193497 L181.358166,48.4001091 L181.131401,48.2764193 C178.815652,46.9982909 176.432561,46.3523551 174.050845,46.3523551 C171.579797,46.3523551 169.433091,47.1714567 167.67807,48.7862963 C165.899684,50.4231251 165.00362,52.4241519 165.00362,54.7426492 C165.00362,56.3945957 165.380187,57.7922909 166.126449,58.8917561 C166.868588,59.9568631 167.768775,60.785585 168.814642,61.3518096 C169.806909,61.8987936 171.420374,62.5997027 173.753989,63.4998898 C175.924059,64.3286118 177.356112,65.2109326 178.024037,66.1234888 C178.693337,67.0154299 179.038294,68.0324353 179.038294,69.1525155 C179.038294,70.6175529 178.488561,71.877815 177.415209,72.889323 C176.33361,73.9104513 174.986765,74.4285743 173.399412,74.4285743 C171.443738,74.4285743 169.070267,73.4143176 166.331225,71.4105422 L165.494257,70.7810984 L165.407674,70.7123818 L165.407674,74.8340021 L165.663299,75.0319059 C168.336374,76.8034193 170.984711,77.6939861 173.527225,77.6939861 C176.055995,77.6939861 178.226064,76.8583925 179.985209,75.202323 C181.753973,73.5393818 182.65416,71.4682642 182.65416,69.0480663 C182.65416,67.2380717 182.26385,65.7318043 181.485979,64.5773658 C180.72185,63.4394193 179.772187,62.5543497 178.661727,61.9482695" id="Fill-38"></path>
                <polygon id="Fill-40" points="189.80948 63.2581449 203.227079 63.2581449 203.227079 60.1837652 189.80948 60.1837652 189.80948 49.5684283 203.589903 49.5684283 203.589903 46.5187866 186.380523 46.5187866 186.380523 77.103161 203.926614 77.103161 203.926614 74.0452733 189.80948 74.0452733"></polygon>
                <polygon id="Fill-42" points="232.058081 71.2585412 210.73945 46.689616 210.621258 46.5398139 210.608889 46.5191989 207.814873 46.5191989 207.814873 77.1035733 211.249327 77.1035733 211.249327 52.3491134 232.649044 76.9482738 232.75899 77.0843326 232.775482 77.1035733 235.500782 77.1035733 235.500782 46.5191989 232.058081 46.5191989"></polygon>
                <path d="M252.494529,61.9389241 C251.388192,61.3479615 249.71563,60.6291861 247.531818,59.8059615 C245.440085,59.0198439 244.006657,58.1718813 243.384085,57.3637743 C242.765636,56.5570417 242.446791,55.6376139 242.446791,54.6384749 C242.446791,53.2366567 242.984155,52.0382396 244.039641,51.0789561 C245.117117,50.1100524 246.476331,49.6139187 248.08155,49.6139187 C249.815957,49.6139187 251.929679,50.3450631 254.371866,51.7853626 L255.173101,52.2746246 L255.250064,52.3337209 L255.250064,48.6903679 L255.186844,48.4196246 L255.181347,48.3990096 L254.958705,48.2766941 C252.636085,46.9985658 250.255743,46.3526299 247.868529,46.3526299 C245.394732,46.3526299 243.256272,47.1717316 241.495753,48.7865711 C239.726989,50.4179027 238.832299,52.4216781 238.832299,54.7429241 C238.832299,56.4044909 239.203368,57.8021861 239.94963,58.892031 C240.682149,59.9516406 241.586459,60.7789882 242.6337,61.3520845 C243.601229,61.8866995 245.216069,62.5903572 247.586791,63.5001647 C249.74724,64.3288866 251.179294,65.2098332 251.856839,66.1182663 C252.522016,67.0143305 252.853229,68.0382075 252.853229,69.1527904 C252.853229,70.6205765 252.30762,71.8835872 251.23839,72.8895979 C250.151294,73.9107262 248.797577,74.4288492 247.222593,74.4288492 C245.261422,74.4288492 242.883828,73.4104695 240.154406,71.4094428 L239.317438,70.7896193 L239.232229,70.7195283 L239.232229,74.6253786 L239.295449,74.9071166 L239.490604,75.0308064 C242.165053,76.8023198 244.807893,77.694261 247.344909,77.694261 C249.865433,77.694261 252.043748,76.857293 253.80839,75.2012235 C255.573032,73.5382824 256.474593,71.468539 256.474593,69.0483412 C256.474593,67.2342235 256.081534,65.7252075 255.305037,64.5817636 C254.549155,63.4479401 253.599491,62.5614963 252.494529,61.9389241" id="Fill-44"></path>
                <path d="M65.6941476,74.4017749 C62.1868535,74.4017749 59.1811904,73.1909888 56.7568695,70.8078979 C54.333923,68.424807 53.1093936,65.4631225 53.1093936,61.9943096 C53.1093936,58.5186251 54.333923,55.5390743 56.7568695,53.1573578 C59.188062,50.7673952 62.1909765,49.5566091 65.6941476,49.5566091 C69.1725807,49.5566091 72.1617519,50.7673952 74.5668321,53.1573578 C76.9595433,55.5390743 78.1744524,58.5145021 78.1744524,61.9943096 C78.1744524,65.4658711 76.9595433,68.4289299 74.5668321,70.8078979 C72.1658749,73.1909888 69.1780781,74.4017749 65.6941476,74.4017749 M77.0461262,50.8924594 C73.9305166,47.8785503 70.0823882,46.3530422 65.6116877,46.3530422 C61.1423615,46.3530422 57.3107251,47.8812989 54.2157305,50.8979567 C51.1124898,53.9118658 49.5430032,57.6459246 49.5430032,61.9943096 C49.5430032,66.3262027 51.1124898,70.0533898 54.2157305,73.0686733 C57.3066021,76.0798337 61.1423615,77.6094647 65.6116877,77.6094647 C70.0865112,77.6094647 73.9346396,76.0798337 77.0461262,73.0686733 C80.1658588,70.0533898 81.7422171,66.3262027 81.7422171,61.9943096 C81.7422171,57.6459246 80.1658588,53.9118658 77.0461262,50.8924594" id="Fill-46"></path>
                <path d="M125.771402,62.0167112 C124.729659,61.4408663 123.109322,60.7427059 120.814188,59.8741283 C118.688097,59.072893 117.293151,58.2510428 116.660958,57.4278182 C116.03976,56.6169626 115.726413,55.6947861 115.726413,54.6874011 C115.726413,53.2759626 116.261028,52.0706738 117.32476,51.1168877 C118.39399,50.1411123 119.762825,49.6449786 121.384536,49.6449786 C123.103825,49.6449786 125.22167,50.3774973 127.678974,51.8150481 L128.436231,52.2740749 L128.518691,52.3331711 L128.518691,48.540016 L128.231456,48.3544813 C125.912958,47.0804759 123.532616,46.4386631 121.172889,46.4386631 C118.703215,46.4386631 116.570252,47.2577647 114.81798,48.8684813 C113.054712,50.4860695 112.158648,52.4774759 112.158648,54.7891016 C112.158648,56.4589144 112.531092,57.845615 113.277354,58.9244652 C113.992006,59.9662086 114.886696,60.7921818 115.94768,61.3748984 C116.942696,61.9218824 118.607012,62.6392834 120.885653,63.5133583 C123.052974,64.3489519 124.490525,65.2326471 125.162573,66.1410802 C125.825001,67.0412674 126.16721,68.0651444 126.16721,69.1893476 C126.16721,70.6722513 125.6216,71.939385 124.55237,72.9426471 C123.458402,73.9706471 122.103311,74.4901444 120.515958,74.4901444 C118.547916,74.4901444 116.166199,73.473139 113.440899,71.462492 L112.645161,70.8632834 L112.561327,70.7973155 L112.561327,74.6468182 L112.603932,74.8832032 L112.603932,74.9106898 L112.80321,75.0385027 C115.459793,76.8031444 118.098509,77.6937112 120.64652,77.6937112 C123.161547,77.6937112 125.330242,76.8581176 127.08114,75.2157914 C128.840284,73.5542246 129.7336,71.4913529 129.7336,69.0848984 C129.7336,67.2831497 129.344664,65.7823797 128.575039,64.6306898 C127.808161,63.4941176 126.862621,62.6172941 125.771402,62.0167112" id="Fill-48"></path>
                <polygon id="Fill-50" points="133.380251 77.0642674 136.759733 77.0642674 136.759733 46.5623529 133.380251 46.5623529"></polygon>
                <path d="M153.505001,62.0167112 C152.459134,61.447738 150.840172,60.7482032 148.543664,59.8741283 C146.418947,59.072893 145.022626,58.2510428 144.394557,57.4278182 C143.771984,56.6169626 143.457263,55.6947861 143.457263,54.6874011 C143.457263,53.2759626 143.990503,52.0706738 145.058359,51.1168877 C146.128963,50.1411123 147.4923,49.6449786 149.11676,49.6449786 C150.840172,49.6449786 152.960765,50.3774973 155.407075,51.8150481 L156.248166,52.3262995 L156.248166,48.540016 L155.966428,48.3544813 C153.646557,47.0804759 151.263466,46.4386631 148.902364,46.4386631 C146.436813,46.4386631 144.305225,47.2577647 142.543332,48.8684813 C140.784188,50.4915668 139.897744,52.4857219 139.897744,54.7891016 C139.897744,56.4630374 140.270188,57.857984 141.010952,58.9244652 C141.725605,59.9772032 142.625792,60.8004278 143.681279,61.3748984 C144.672172,61.9218824 146.336487,62.6392834 148.624749,63.5133583 C150.785198,64.3489519 152.222749,65.2326471 152.901669,66.1410802 C153.564097,67.0302727 153.896685,68.0582727 153.896685,69.1893476 C153.896685,70.6722513 153.351075,71.931139 152.268102,72.9426471 C151.189252,73.9706471 149.834161,74.4901444 148.248182,74.4901444 C146.287011,74.4901444 143.909418,73.469016 141.170375,71.458369 L140.374637,70.8756524 L140.288054,70.8124332 L140.288054,74.6481925 L140.34715,74.9106898 L140.534059,75.0385027 C143.194765,76.8031444 145.832107,77.6937112 148.375995,77.6937112 C150.895145,77.6937112 153.065214,76.8581176 154.814739,75.2157914 C156.57938,73.5514759 157.471321,71.4913529 157.471321,69.0848984 C157.471321,67.2872727 157.081011,65.7865027 156.301765,64.6361872 C155.55138,63.507861 154.611337,62.6255401 153.505001,62.0167112" id="Fill-52"></path>
                <polygon id="Fill-53" points="96.392454 44.3920086 96.3443524 44.2834364 81.6623684 76.2819979 81.3050422 77.0255112 81.262438 77.1038481 84.9099139 77.1038481 96.3209888 52.1061316 107.664721 76.8578428 107.778791 77.0749872 107.789786 77.1038481 111.402903 77.1038481 97.4905449 46.7847198"></polygon>
                <path d="M91.5554941,10.3665829 L97.8774193,10.3665829 L97.8774193,18.3445775 C95.5575476,19.3547112 93.2555422,19.8590909 90.9769005,19.8590909 C87.8530449,19.8590909 85.3627561,18.9451604 83.4977882,17.1255455 C81.6328203,15.3045561 80.6982749,13.0602727 80.6982749,10.3899465 C80.6982749,7.57531551 81.6671786,5.23757754 83.5994888,3.3671123 C85.5276759,1.49802139 87.9547455,0.563475936 90.8683283,0.563475936 C91.927938,0.563475936 92.9325743,0.674796791 93.8877348,0.901561497 C94.8387722,1.13794652 96.044061,1.55574332 97.4994781,2.16594652 L97.4994781,4.91598396 C95.252446,3.61311765 93.0232802,2.96168449 90.8133551,2.96168449 C88.7532321,2.96168449 87.0202,3.66534225 85.6060128,5.06716043 C84.1959487,6.46897861 83.4909166,8.18551872 83.4909166,10.2305241 C83.4909166,12.368984 84.1959487,14.1157594 85.6060128,15.4749733 C87.0202,16.8341872 88.835692,17.5076096 91.0593604,17.5076096 C92.1327134,17.5076096 93.4232107,17.2671016 94.9253551,16.7668449 L95.1796064,16.6857594 L95.1796064,12.7634171 L91.5554941,12.7634171 L91.5554941,10.3665829 Z" id="Fill-54"></path>
                <path d="M108.71581,3.09898021 L107.904955,3.09898021 L107.904955,9.03884118 L108.932955,9.03884118 C110.297666,9.03884118 111.23496,8.92477166 111.742088,8.68838663 C112.250591,8.4561246 112.645024,8.10429572 112.930885,7.63427433 C113.212623,7.16012995 113.354179,6.62276631 113.354179,6.0166861 C113.354179,5.43259519 113.196131,4.89110856 112.881409,4.40871818 C112.572184,3.92907647 112.125527,3.58686791 111.55243,3.3944615 C110.984832,3.19243476 110.033794,3.09898021 108.71581,3.09898021 Z M105.208516,19.6404348 L105.208516,0.806595187 L109.932094,0.806595187 C111.835543,0.806595187 113.344559,1.27524225 114.464639,2.21803369 C115.583345,3.1635738 116.146821,4.44170214 116.146821,6.04692139 C116.146821,7.14226364 115.869206,8.09330107 115.324971,8.89865936 C114.773864,9.69439733 113.991869,10.2936059 112.963869,10.6894134 C113.563078,11.0810979 114.155414,11.6225845 114.729885,12.3070016 C115.301607,12.9886701 116.115211,14.1802155 117.156955,15.8802636 C117.811136,16.9508679 118.33888,17.7507289 118.734687,18.2922155 L119.736575,19.6404348 L116.524762,19.6404348 L115.701537,18.3994134 C115.678174,18.3568091 115.621826,18.2784722 115.542115,18.1726487 L115.019869,17.4263866 L114.180152,16.0548037 L113.277217,14.5787717 C112.721987,13.805023 112.213484,13.1920711 111.74896,12.7371674 C111.283061,12.2781406 110.866639,11.9455524 110.494195,11.7503973 C110.121751,11.5414989 109.488184,11.4425471 108.605864,11.4425471 L107.904955,11.4425471 L107.904955,19.6404348 L105.208516,19.6404348 Z" id="Fill-55"></path>
                <path d="M135.093905,11.6562556 L132.060756,4.83682246 L129.240627,11.6562556 L135.093905,11.6562556 Z M131.137205,0.697335829 L133.033782,0.697335829 L141.47905,19.6411219 L138.719392,19.6411219 L136.209863,14.0599615 L128.170023,14.0599615 L125.818542,19.6411219 L123.046515,19.6411219 L131.137205,0.697335829 Z" id="Fill-56"></path>
                <polygon id="Fill-57" points="161.819432 0.806595187 164.383934 0.806595187 164.383934 19.6404348 162.06956 19.6404348 149.471063 5.13436524 149.471063 19.6404348 146.93817 19.6404348 146.93817 0.806595187 149.120608 0.806595187 161.819432 15.4322316"></polygon>
                <path d="M177.833693,3.20370428 L174.459709,3.20370428 L174.459709,17.2191374 L177.912029,17.2191374 C179.2575,17.2191374 180.303366,17.1256829 181.049628,16.9346508 C181.79589,16.7518647 182.418463,16.520977 182.918719,16.2378647 C183.414853,15.9520037 183.869757,15.6056722 184.287553,15.1933727 C185.620655,13.8424048 186.284457,12.1368594 186.284457,10.083608 C186.284457,8.05646898 185.601414,6.41001979 184.23258,5.13464011 C183.732324,4.65774706 183.155104,4.2633139 182.500922,3.96370963 C181.849489,3.6489877 181.232414,3.45245829 180.644201,3.34800909 C180.062858,3.25318021 179.121441,3.20370428 177.833693,3.20370428 Z M171.761896,19.613223 L171.761896,0.806870053 L178.111307,0.806870053 C180.671687,0.806870053 182.700201,1.18618556 184.192725,1.95718556 C185.689372,2.7213139 186.871297,3.85513743 187.749495,5.35041016 C188.630441,6.84155989 189.077099,8.46601979 189.077099,10.2306615 C189.077099,11.4854262 188.831094,12.6962123 188.34458,13.8424048 C187.858067,14.9968433 187.166778,16.006977 186.270714,16.8755545 C185.35266,17.777116 184.287553,18.4546615 183.074019,18.9136882 C182.363489,19.1954262 181.71343,19.3782123 181.118345,19.4771642 C180.526008,19.5651214 179.393559,19.613223 177.72512,19.613223 L171.761896,19.613223 Z" id="Fill-58"></path>
                <polygon id="Fill-59" points="16.8979561 103.826488 29.5033251 103.826488 29.5033251 105.747804 24.2437583 105.747804 24.2437583 118.938638 22.0723144 118.938638 22.0723144 105.747804 16.8979561 105.747804"></polygon>
                <polygon id="Fill-60" points="42.294916 103.847928 44.4553652 103.847928 44.4553652 118.938088 42.294916 118.938088 42.294916 112.370158 33.8166647 112.370158 33.8166647 118.938088 31.6562155 118.938088 31.6562155 103.847928 33.8166647 103.847928 33.8166647 110.373254 42.294916 110.373254"></polygon>
                <polygon id="Fill-61" points="47.8928433 103.847928 56.4480572 103.847928 56.4480572 105.769243 50.0532925 105.769243 50.0532925 110.373254 56.2309128 110.373254 56.2309128 112.305564 50.0532925 112.305564 50.0532925 116.992035 56.6528326 116.992035 56.6528326 118.917473 47.8928433 118.917473"></polygon>
                <path d="M69.6083813,105.748353 L67.3723439,105.748353 L67.3723439,110.470557 L69.7375684,110.470557 C70.6157663,110.470557 71.2933118,110.263033 71.7688305,109.849359 C72.2429749,109.434311 72.4807342,108.843348 72.4807342,108.072348 C72.4807342,106.523476 71.5241995,105.748353 69.6083813,105.748353 Z M65.2009,118.939188 L65.2009,103.827038 L69.9863225,103.827038 C71.4266219,103.827038 72.5755631,104.215974 73.4317717,104.993845 C74.2893545,105.770343 74.7167717,106.81346 74.7167717,108.125947 C74.7167717,109.004145 74.4982529,109.783391 74.0584668,110.459562 C73.6186807,111.135733 73.0180979,111.62637 72.2539695,111.932845 C71.4912155,112.239321 70.3972476,112.391872 68.9706914,112.391872 L67.3723439,112.391872 L67.3723439,118.939188 L65.2009,118.939188 Z" id="Fill-62"></path>
                <polygon id="Fill-63" points="76.7076283 103.847928 78.8680775 103.847928 78.8680775 116.97142 85.6613984 116.97142 85.6613984 118.938088 76.7076283 118.938088"></polygon>
                <polygon id="Fill-64" points="87.6625626 103.847928 96.2177765 103.847928 96.2177765 105.769243 89.8230118 105.769243 89.8230118 110.373254 96.0006321 110.373254 96.0006321 112.305564 89.8230118 112.305564 89.8230118 116.992035 96.4225519 116.992035 96.4225519 118.917473 87.6625626 118.917473"></polygon>
                <path d="M106.826104,112.544835 L104.392163,107.07637 L102.134136,112.544835 L106.826104,112.544835 Z M103.651398,103.761482 L105.170035,103.761482 L111.935869,118.938226 L109.72457,118.938226 L107.713922,114.466151 L101.276553,114.466151 L99.3909706,118.938226 L97.1714251,118.938226 L103.651398,103.761482 Z" id="Fill-65"></path>
                <path d="M117.436219,112.614651 L115.793893,111.618261 C114.764518,110.987443 114.031999,110.370368 113.596336,109.761539 C113.160673,109.154084 112.942155,108.45455 112.942155,107.66156 C112.942155,106.472764 113.354454,105.509357 114.179053,104.765844 C115.003652,104.025079 116.07563,103.65401 117.393614,103.65401 C118.652502,103.65401 119.809689,104.008587 120.859679,104.714994 L120.859679,107.168175 C119.772582,106.120935 118.603026,105.598689 117.349636,105.598689 C116.643229,105.598689 116.064636,105.762234 115.611106,106.086576 C115.157577,106.413667 114.930812,106.832839 114.930812,107.339967 C114.930812,107.793496 115.097106,108.215416 115.432443,108.609849 C115.766406,109.004282 116.302395,109.420705 117.04316,109.852245 L118.693732,110.829395 C120.533962,111.930234 121.454764,113.329304 121.454764,115.027978 C121.454764,116.238764 121.049336,117.221411 120.239855,117.977293 C119.428999,118.731801 118.376261,119.111117 117.080267,119.111117 C115.589117,119.111117 114.231278,118.65209 113.008122,117.736785 L113.008122,114.992245 C114.173556,116.4724 115.524524,117.210416 117.058278,117.210416 C117.734449,117.210416 118.297925,117.022133 118.748705,116.644191 C119.198112,116.267625 119.423502,115.794855 119.423502,115.22863 C119.423502,114.310576 118.761074,113.43925 117.436219,112.614651" id="Fill-66"></path>
                <path d="M134.440273,103.847928 L136.611717,103.847928 L136.611717,112.412762 C136.611717,113.572698 136.527883,114.448147 136.35884,115.03911 C136.187049,115.628698 135.979525,116.120709 135.730771,116.512393 C135.483391,116.906826 135.178289,117.255906 134.818214,117.566505 C133.622546,118.594505 132.061305,119.10988 130.13037,119.10988 C128.165075,119.10988 126.587343,118.600003 125.39992,117.5775 C125.039845,117.261404 124.734744,116.906826 124.487364,116.512393 C124.23861,116.120709 124.033835,115.639693 123.871664,115.070719 C123.709493,114.501746 123.628407,113.611179 123.628407,112.392147 L123.628407,103.847928 L125.798476,103.847928 L125.798476,112.412762 C125.798476,113.833821 125.962022,114.817842 126.28499,115.374447 C126.609332,115.926928 127.102717,116.372211 127.765145,116.707548 C128.427573,117.044259 129.208193,117.210553 130.109755,117.210553 C131.390632,117.210553 132.435124,116.875217 133.241856,116.205917 C133.666525,115.845842 133.971626,115.419799 134.15991,114.930537 C134.346819,114.439901 134.440273,113.602933 134.440273,112.412762 L134.440273,103.847928 Z" id="Fill-67"></path>
                <path d="M142.586898,105.683897 L141.938214,105.683897 L141.938214,110.448705 L142.760064,110.448705 C143.854032,110.448705 144.605791,110.353876 145.012594,110.166967 C145.419396,109.981432 145.735492,109.696945 145.962257,109.319004 C146.189021,108.942437 146.303091,108.510897 146.303091,108.027133 C146.303091,107.551614 146.176652,107.122822 145.92515,106.739384 C145.672273,106.351822 145.317695,106.081079 144.860043,105.923031 C144.40239,105.764983 143.646508,105.683897 142.586898,105.683897 Z M139.779139,118.939325 L139.779139,103.84779 L143.558551,103.84779 C145.085433,103.84779 146.297594,104.225732 147.195032,104.982988 C148.091096,105.737496 148.539128,106.759999 148.539128,108.051871 C148.539128,108.928694 148.319235,109.688699 147.880824,110.330512 C147.439663,110.969576 146.810219,111.449218 145.989743,111.766689 C146.472134,112.082785 146.943529,112.515699 147.405305,113.062683 C147.865706,113.611042 148.513016,114.563453 149.34861,115.924042 C149.874979,116.78025 150.295524,117.424812 150.612995,117.856352 L151.411481,118.939325 L148.841481,118.939325 L148.183176,117.942935 C148.162561,117.908576 148.117209,117.846732 148.053989,117.760149 L147.633444,117.165063 L146.964144,116.064224 L146.241246,114.885047 C145.795963,114.265224 145.386412,113.771839 145.016717,113.406266 C144.644273,113.03932 144.308936,112.775448 144.009332,112.614651 C143.709727,112.451106 143.208096,112.37002 142.50169,112.37002 L141.938214,112.37002 L141.938214,118.939325 L139.779139,118.939325 Z" id="Fill-68"></path>
                <polygon id="Fill-69" points="153.185606 103.847928 161.74082 103.847928 161.74082 105.769243 155.346055 105.769243 155.346055 110.373254 161.523675 110.373254 161.523675 112.305564 155.346055 112.305564 155.346055 116.992035 161.945595 116.992035 161.945595 118.917473 153.185606 118.917473"></polygon>
                <path d="M173.486544,105.683897 L172.83786,105.683897 L172.83786,110.448705 L173.65971,110.448705 C174.753678,110.448705 175.505437,110.353876 175.91224,110.166967 C176.319042,109.981432 176.635138,109.696945 176.861903,109.319004 C177.088667,108.942437 177.202737,108.510897 177.202737,108.027133 C177.202737,107.551614 177.076298,107.122822 176.824796,106.739384 C176.571919,106.351822 176.217341,106.081079 175.759689,105.923031 C175.302036,105.764983 174.546154,105.683897 173.486544,105.683897 Z M170.678785,118.939325 L170.678785,103.84779 L174.458197,103.84779 C175.985079,103.84779 177.19724,104.225732 178.094678,104.982988 C178.990742,105.737496 179.438774,106.759999 179.438774,108.051871 C179.438774,108.928694 179.218881,109.688699 178.78047,110.330512 C178.339309,110.969576 177.709865,111.449218 176.889389,111.766689 C177.37178,112.082785 177.843175,112.515699 178.304951,113.062683 C178.765352,113.611042 179.412662,114.563453 180.248256,115.924042 C180.774625,116.78025 181.19517,117.424812 181.512641,117.856352 L182.311127,118.939325 L179.741127,118.939325 L179.082822,117.942935 C179.062207,117.908576 179.016855,117.846732 178.953635,117.760149 L178.53309,117.165063 L177.86379,116.064224 L177.140892,114.885047 C176.695609,114.265224 176.286058,113.771839 175.916363,113.406266 C175.543919,113.03932 175.208582,112.775448 174.908978,112.614651 C174.609373,112.451106 174.107742,112.37002 173.401336,112.37002 L172.83786,112.37002 L172.83786,118.939325 L170.678785,118.939325 Z" id="Fill-70"></path>
                <polygon id="Fill-71" points="184.085252 103.847928 192.640466 103.847928 192.640466 105.769243 186.245701 105.769243 186.245701 110.373254 192.423321 110.373254 192.423321 112.305564 186.245701 112.305564 186.245701 116.992035 192.845241 116.992035 192.845241 118.917473 184.085252 118.917473"></polygon>
                <path d="M198.994825,112.614651 L197.353873,111.618261 C196.323125,110.987443 195.589232,110.370368 195.154943,109.761539 C194.71928,109.154084 194.500761,108.45455 194.500761,107.66156 C194.500761,106.472764 194.91306,105.509357 195.739034,104.765844 C196.562258,104.025079 197.634237,103.65401 198.952221,103.65401 C200.212483,103.65401 201.368296,104.008587 202.418285,104.714994 L202.418285,107.168175 C201.331189,106.120935 200.161633,105.598689 198.909617,105.598689 C198.20321,105.598689 197.623242,105.762234 197.169713,106.086576 C196.716183,106.413667 196.489419,106.832839 196.489419,107.339967 C196.489419,107.793496 196.655713,108.215416 196.989675,108.609849 C197.323638,109.004282 197.862376,109.420705 198.603141,109.852245 L200.252339,110.829395 C202.092568,111.930234 203.013371,113.329304 203.013371,115.027978 C203.013371,116.238764 202.607943,117.221411 201.797087,117.977293 C200.987606,118.731801 199.934868,119.111117 198.637499,119.111117 C197.147724,119.111117 195.789884,118.65209 194.565355,117.736785 L194.565355,114.992245 C195.733536,116.4724 197.08313,117.210416 198.616884,117.210416 C199.294429,117.210416 199.856531,117.022133 200.307312,116.644191 C200.756718,116.267625 200.982109,115.794855 200.982109,115.22863 C200.982109,114.310576 200.319681,113.43925 198.994825,112.614651" id="Fill-72"></path>
                <path d="M212.990468,105.683897 C211.262933,105.683897 209.844623,106.22401 208.732789,107.305609 C207.620955,108.384459 207.06435,109.764288 207.06435,111.440972 C207.06435,113.068181 207.623703,114.423272 208.738286,115.503496 C209.852869,116.585095 211.247816,117.123833 212.9245,117.123833 C214.60943,117.123833 216.012623,116.571352 217.139575,115.470512 C218.265152,114.369673 218.828628,112.99809 218.828628,111.355764 C218.828628,109.756042 218.265152,108.410571 217.139575,107.320726 C216.012623,106.228133 214.630045,105.683897 212.990468,105.683897 M212.903885,103.633395 C215.234751,103.633395 217.176682,104.371411 218.726928,105.847443 C220.278548,107.323475 221.053671,109.173325 221.053671,111.398368 C221.053671,113.623411 220.270302,115.465015 218.704939,116.923181 C217.140949,118.382721 215.167409,119.111117 212.785693,119.111117 C210.511174,119.111117 208.615971,118.382721 207.101457,116.923181 C205.586944,115.465015 204.829687,113.637154 204.829687,111.440972 C204.829687,109.187068 205.592441,107.323475 207.117949,105.847443 C208.643457,104.371411 210.571644,103.633395 212.903885,103.633395" id="Fill-73"></path>
                <path d="M226.693516,105.683897 L226.044831,105.683897 L226.044831,110.448705 L226.866681,110.448705 C227.960649,110.448705 228.712409,110.353876 229.119211,110.166967 C229.526013,109.981432 229.842109,109.696945 230.068874,109.319004 C230.295639,108.942437 230.409708,108.510897 230.409708,108.027133 C230.409708,107.551614 230.28327,107.122822 230.031767,106.739384 C229.77889,106.351822 229.424312,106.081079 228.96666,105.923031 C228.509007,105.764983 227.753125,105.683897 226.693516,105.683897 Z M223.885756,118.939325 L223.885756,103.84779 L227.665168,103.84779 C229.19205,103.84779 230.404211,104.225732 231.301649,104.982988 C232.197713,105.737496 232.645745,106.759999 232.645745,108.051871 C232.645745,108.928694 232.425852,109.688699 231.987441,110.330512 C231.54628,110.969576 230.916836,111.449218 230.09636,111.766689 C230.578751,112.082785 231.050147,112.515699 231.511922,113.062683 C231.972323,113.611042 232.619633,114.563453 233.455227,115.924042 C233.981596,116.78025 234.402141,117.424812 234.719612,117.856352 L235.518098,118.939325 L232.948098,118.939325 L232.289794,117.942935 C232.269179,117.908576 232.223826,117.846732 232.160606,117.760149 L231.740061,117.165063 L231.070761,116.064224 L230.347863,114.885047 C229.90258,114.265224 229.493029,113.771839 229.123334,113.406266 C228.75089,113.03932 228.415553,112.775448 228.115949,112.614651 C227.816344,112.451106 227.314713,112.37002 226.608307,112.37002 L226.044831,112.37002 L226.044831,118.939325 L223.885756,118.939325 Z" id="Fill-74"></path>
                <polygon id="Fill-75" points="234.020214 103.826488 246.625583 103.826488 246.625583 105.747804 241.364642 105.747804 241.364642 118.938638 239.194573 118.938638 239.194573 105.747804 234.020214 105.747804"></polygon>
            </g>
        </g>
    </g>
</svg>