<?xml version="1.0" encoding="UTF-8"?>
<svg width="130px" height="109px" viewBox="0 0 130 109" version="1.1" xmlns="http://www.w3.org/2000/svg" xmlns:xlink="http://www.w3.org/1999/xlink">
    <!-- Generator: Sketch 49.1 (51147) - http://www.bohemiancoding.com/sketch -->
    <title>oh</title>
    <desc>Created with Sketch.</desc>
    <defs></defs>
    <g id="Page-1" stroke="none" stroke-width="1" fill="none" fill-rule="evenodd">
        <g id="New-Hotspot-oh" transform="translate(-655.000000, -67.000000)" fill="#FFFFFF" fill-rule="nonzero">
            <g id="oh" transform="translate(655.000000, 67.311475)">
                <polygon id="Fill-2" points="0 98.0327869 8.52459016 98.0327869 8.52459016 99.3892028 4.96743867 99.3892028 4.96743867 108.688525 3.49991428 108.688525 3.49991428 99.3892028 0 99.3892028"></polygon>
                <polygon id="Fill-3" points="17.7430906 98.0327869 19.1803279 98.0327869 19.1803279 108.688525 17.7430906 108.688525 17.7430906 104.052103 12.0975933 104.052103 12.0975933 108.688525 10.6557377 108.688525 10.6557377 98.0327869 12.0975933 98.0327869 12.0975933 102.641785 17.7430906 102.641785"></polygon>
                <polygon id="Fill-4" points="21.3114754 98.0327869 27.5531509 98.0327869 27.5531509 99.393073 22.8918769 99.393073 22.8918769 102.648148 27.3983484 102.648148 27.3983484 104.014319 22.8918769 104.014319 22.8918769 107.329219 27.704918 107.329219 27.704918 108.688525 21.3114754 108.688525"></polygon>
                <g id="Group-27" transform="translate(10.655738, 0.000000)">
                    <path d="M31.1415377,97.4459952 L32.645853,97.4459952 L32.645853,103.387314 C32.645853,104.192378 32.5900308,104.798341 32.4706865,105.209049 C32.3551919,105.614948 32.2088991,105.959288 32.0375823,106.229567 C31.8662656,106.503693 31.6526008,106.746078 31.4023627,106.959607 C30.57369,107.67522 29.4880424,108.031103 28.1483067,108.031103 C26.7873972,108.031103 25.6902,107.677144 24.865377,106.968264 C24.615139,106.746078 24.4053241,106.503693 24.2340073,106.229567 C24.0588409,105.959288 23.9163977,105.622643 23.8047531,105.231171 C23.6931084,104.835853 23.6363236,104.215463 23.6363236,103.372886 L23.6363236,97.4459952 L25.1454512,97.4459952 L25.1454512,103.387314 C25.1454512,104.37032 25.2590207,105.055154 25.48231,105.439892 C25.7055992,105.82463 26.0482328,106.134344 26.5092479,106.365187 C26.9683385,106.596992 27.5102,106.712413 28.1329074,106.712413 C29.0231771,106.712413 29.7517546,106.48157 30.3090154,106.018923 C30.6035261,105.765958 30.8152661,105.471633 30.9461597,105.134025 C31.0770535,104.793532 31.1415377,104.212577 31.1415377,103.387314 L31.1415377,97.4459952 Z" id="Fill-5"></path>
                    <path d="M36.796916,98.7215944 L36.3445627,98.7215944 L36.3445627,102.024571 L36.9162603,102.024571 C37.6737112,102.024571 38.1963236,101.959166 38.4763977,101.828355 C38.7603216,101.70043 38.9826484,101.504213 39.1376033,101.239706 C39.2944832,100.979046 39.374367,100.679912 39.374367,100.344228 C39.374367,100.016238 39.2867836,99.7171044 39.1125796,99.4506732 C38.9364505,99.1832803 38.6900623,98.9947585 38.3724527,98.8841464 C38.0548429,98.7744959 37.5283808,98.7215944 36.796916,98.7215944 Z M34.8469846,107.911065 L34.8469846,97.4461877 L37.4687087,97.4461877 C38.5293327,97.4461877 39.3705173,97.7087713 39.9922623,98.2310533 C40.6140073,98.7571827 40.9239175,99.4670247 40.9239175,100.359617 C40.9239175,100.969427 40.7747372,101.496518 40.4677145,101.942815 C40.1616542,102.385263 39.7237377,102.719024 39.15589,102.939286 C39.4888991,103.156663 39.8190207,103.457721 40.1385553,103.834764 C40.4571274,104.215655 40.9085183,104.878367 41.4869529,105.820975 C41.8536479,106.418281 42.1462338,106.863615 42.3647107,107.161788 L42.9181216,107.911065 L41.1366197,107.911065 L40.676567,107.224307 C40.6611677,107.198338 40.6322941,107.155055 40.5870588,107.096382 L40.2963977,106.68375 L39.8334575,105.91716 L39.3320189,105.100553 C39.022109,104.670608 38.7381851,104.330115 38.4802474,104.073302 C38.22231,103.82226 37.9874711,103.637586 37.7805435,103.526012 C37.5736161,103.413476 37.2242454,103.356727 36.7372439,103.356727 L36.3445627,103.356727 L36.3445627,107.911065 L34.8469846,107.911065 Z" id="Fill-7"></path>
                    <path d="M47.0493581,103.260254 L45.6480255,103.260254 L45.6480255,106.577659 L47.1234669,106.577659 C47.9454025,106.577659 48.5017006,106.516101 48.7933241,106.389137 C49.0849476,106.262173 49.318824,106.061148 49.4997652,105.790869 C49.6758943,105.522514 49.7644401,105.231075 49.7644401,104.921361 C49.7644401,104.603952 49.6720444,104.311551 49.480516,104.048006 C49.2966875,103.783498 49.0281629,103.584396 48.6855294,103.453585 C48.3390459,103.322774 47.7952598,103.260254 47.0493581,103.260254 M46.9377135,98.7799785 L45.6480255,98.7799785 L45.6480255,101.926175 L46.6460898,101.926175 C47.4449266,101.926175 48.0127743,101.773241 48.3525203,101.47026 C48.6893791,101.166317 48.8578086,100.770037 48.8578086,100.284305 C48.8578086,99.2801382 48.2177768,98.7799785 46.9377135,98.7799785 M47.6951644,107.910776 L44.1465975,107.910776 L44.1465975,97.4458991 L46.892478,97.4458991 C47.7596489,97.4458991 48.432404,97.5613206 48.9155559,97.7940871 C49.4025574,98.0278156 49.7721397,98.3471482 50.0262275,98.752085 C50.2793528,99.1599073 50.4063967,99.6321735 50.4063967,100.165036 C50.4063967,101.195172 49.8770471,101.930984 48.8125733,102.375357 C49.5786865,102.520595 50.1831074,102.835119 50.638348,103.319889 C51.0916636,103.804659 51.3159155,104.382728 51.3159155,105.056981 C51.3159155,105.590806 51.1811718,106.068843 50.9039851,106.488207 C50.6277609,106.90661 50.2244928,107.249989 49.6941808,107.515458 C49.1600189,107.780927 48.494001,107.910776 47.6951644,107.910776" id="Fill-9"></path>
                    <polygon id="Fill-11" points="71.8146399 97.4459952 73.2371465 97.4459952 73.2371465 107.910873 71.9493834 107.910873 64.9484951 99.8525322 64.9484951 107.910873 63.5365753 107.910873 63.5365753 97.4459952 64.7540794 97.4459952 71.8146399 105.57455"></polygon>
                    <path d="M85.0963089,98.7215944 C83.9019037,98.7215944 82.9144262,99.0947906 82.1415758,99.8450299 C81.3725753,100.592384 80.9875939,101.550382 80.9875939,102.713253 C80.9875939,103.841497 81.3725753,104.78122 82.1454257,105.529536 C82.9182761,106.279775 83.8903543,106.653933 85.0510734,106.653933 C86.2214172,106.653933 87.1963829,106.271119 87.9759705,105.507414 C88.7565203,104.742746 89.1501639,103.792443 89.1501639,102.651695 C89.1501639,101.543649 88.7565203,100.609697 87.9759705,99.8546484 C87.1963829,99.0986379 86.2348916,98.7215944 85.0963089,98.7215944 M85.0366368,97.2971015 C86.6545213,97.2971015 88.002919,97.8097651 89.0779798,98.8331685 C90.1530406,99.8556102 90.6910524,101.139674 90.6910524,102.683435 C90.6910524,104.227197 90.1491909,105.503566 89.0625806,106.516389 C87.9759705,107.526327 86.609286,108.031296 84.9548282,108.031296 C83.3792913,108.031296 82.0636171,107.526327 81.0106928,106.516389 C79.9596933,105.503566 79.433231,104.235854 79.433231,102.713253 C79.433231,101.151216 79.963543,99.8556102 81.0203173,98.8331685 C82.0819037,97.8097651 83.4187521,97.2971015 85.0366368,97.2971015" id="Fill-13"></path>
                    <polygon id="Fill-15" points="97.5452628 103.476381 95.8580815 99.687672 94.2883193 103.476381 93.6964103 104.808537 92.3884358 107.910488 90.84466 107.910488 95.3431687 97.3859761 96.3980179 97.3859761 101.091905 107.910488 99.5596784 107.910488 98.1631581 104.808537"></polygon>
                    <polygon id="Fill-17" points="58.7219006 103.476381 57.0327942 99.687672 55.468807 103.476381 54.8711233 104.808537 53.5631486 107.910488 52.0212976 107.910488 56.5217314 97.3859761 57.5746557 97.3859761 62.2704676 107.910488 60.7343914 107.910488 59.3436457 104.808537"></polygon>
                    <path d="M104.912172,103.528897 L103.771665,102.834445 C103.054637,102.399691 102.547424,101.972632 102.245213,101.548458 C101.941078,101.126208 101.791897,100.640476 101.791897,100.091262 C101.791897,99.2659991 102.075821,98.5965547 102.647519,98.0819674 C103.223066,97.5693039 103.96608,97.3115292 104.882336,97.3115292 C105.757207,97.3115292 106.559893,97.555838 107.286546,98.0473409 L107.286546,99.7469217 C106.532945,99.0226521 105.722558,98.6609982 104.851538,98.6609982 C104.363574,98.6609982 103.960306,98.7725723 103.645583,99.0005297 C103.328936,99.2265632 103.172056,99.5160788 103.172056,99.8681141 C103.172056,100.183599 103.288513,100.475038 103.518539,100.750126 C103.749528,101.024252 104.124885,101.311844 104.639798,101.61194 L105.781268,102.289079 C107.058444,103.05086 107.699438,104.021362 107.699438,105.200585 C107.699438,106.039314 107.418402,106.719339 106.855366,107.244506 C106.295218,107.769674 105.561829,108.031296 104.661934,108.031296 C103.630184,108.031296 102.686017,107.713887 101.838095,107.079069 L101.838095,105.175577 C102.647519,106.200904 103.581099,106.712606 104.651348,106.712606 C105.117175,106.712606 105.508894,106.582756 105.818804,106.320173 C106.133526,106.059513 106.291368,105.733447 106.291368,105.339091 C106.291368,104.703311 105.830353,104.097348 104.912172,103.528897" id="Fill-19"></path>
                    <polygon id="Fill-21" points="109.439651 107.911353 110.941079 107.911353 110.941079 97.4464762 109.439651 97.4464762"></polygon>
                    <path d="M115.935251,103.528897 L114.794744,102.834445 C114.077716,102.399691 113.570502,101.972632 113.268292,101.548458 C112.964157,101.126208 112.814976,100.640476 112.814976,100.091262 C112.814976,99.2659991 113.0989,98.5965547 113.674447,98.0819674 C114.246145,97.5693039 114.989159,97.3115292 115.905415,97.3115292 C116.780286,97.3115292 117.582972,97.555838 118.309624,98.0473409 L118.309624,99.7469217 C117.556023,99.0226521 116.745637,98.6609982 115.870767,98.6609982 C115.382803,98.6609982 114.983384,98.7725723 114.668662,99.0005297 C114.351052,99.2265632 114.19321,99.5160788 114.19321,99.8681141 C114.19321,100.183599 114.311592,100.475038 114.541618,100.750126 C114.772607,101.024252 115.146039,101.311844 115.660952,101.61194 L116.804347,102.289079 C118.081523,103.05086 118.720592,104.021362 118.720592,105.200585 C118.720592,106.039314 118.440518,106.719339 117.87652,107.244506 C117.318297,107.769674 116.584907,108.031296 115.688863,108.031296 C114.649413,108.031296 113.709096,107.713887 112.861174,107.079069 L112.861174,105.175577 C113.670597,106.200904 114.604178,106.712606 115.670576,106.712606 C116.140254,106.712606 116.531973,106.582756 116.845732,106.320173 C117.156605,106.059513 117.314447,105.733447 117.314447,105.339091 C117.314447,104.703311 116.853432,104.097348 115.935251,103.528897" id="Fill-23"></path>
                    <path d="M78.4813644,42.9486072 L78.4813644,43.211191 C78.4813644,64.2871463 63.3207932,80.1806788 43.2170598,80.1806788 C33.3740454,80.1806788 24.3269803,76.305404 17.7428345,69.270467 C11.2568588,62.3422949 7.68615548,52.9960436 7.68615548,42.9486072 L7.68615548,42.6850614 C7.68615548,21.6119917 22.8486515,5.72038286 42.9523849,5.72038286 C52.7944368,5.72038286 61.8443892,9.59469593 68.4256479,16.6296328 C74.9058487,23.5558811 78.4813644,32.9011706 78.4813644,42.9486072 M43.198773,0.572586537 C31.2797463,0.572586537 20.3838075,5.14712303 12.5090111,13.4507339 C4.93738762,21.441745 0.762263352,32.0932204 0.762263352,43.4449193 L0.762263352,43.6757622 C0.762263352,55.0264991 4.89792701,65.6395009 12.3973665,73.5574118 C20.1932417,81.7869605 31.0468323,86.3172521 42.9677843,86.3172521 C54.8896986,86.3172521 65.7865997,81.7398302 73.654659,73.4419903 C81.2291697,65.4461698 85.4023692,54.7956564 85.4023692,43.4449193 L85.4023692,43.211191 C85.4023692,31.8614157 81.2715178,21.2484142 73.7740033,13.3305033 C65.9752406,5.10672551 55.1178,0.572586537 43.198773,0.572586537" id="Fill-24"></path>
                    <path d="M105.695995,82.8651893 C105.199368,83.8510807 104.478491,82.8930828 103.879845,83.6769866 C103.284086,84.4676236 102.625767,85.1034033 101.898152,85.5862497 C101.168612,86.0710197 100.384213,86.3172521 99.5478403,86.3172521 C98.6739324,86.3172521 97.8327478,86.0479354 97.0117748,85.5141112 C96.193689,84.9774016 95.5517324,84.2377425 95.0801301,83.3037907 C94.7490459,82.6343463 94.5681047,81.9004582 94.5536679,81.094432 C94.5344189,80.2922529 94.6181523,79.4785318 94.7923564,78.660963 C94.9684855,77.8385854 95.186,77.0229405 95.4439377,76.2034484 C95.7047627,75.3801087 95.9473009,74.6019758 96.1609657,73.8680877 C96.380405,73.1303524 96.5266981,72.4512895 96.6046568,71.8357086 C96.6797281,71.2153183 96.6085067,70.6911125 96.3919546,70.2544348 C96.1195801,69.7167631 95.7904209,69.3483764 95.3861904,69.1492746 C94.9829223,68.947287 94.5652174,68.8501405 94.1311508,68.8501405 C93.295741,68.8501405 92.5219281,69.1569693 91.8077874,69.7715884 C91.0907594,70.3900549 90.4449529,71.1980051 89.8559312,72.2031336 C89.269797,73.2024909 88.7510343,74.3297735 88.3054184,75.5811343 C87.8569148,76.8315334 87.4777082,78.0896271 87.1543236,79.3563774 C86.8319016,80.6240894 86.5932131,81.8254343 86.4440328,82.9604119 C86.2910025,84.0953893 86.2130439,85.0620439 86.2130439,85.8603756 L82.976312,85.9132771 C83.3795801,83.0354358 83.8069095,80.1085403 84.2602252,77.1297054 C84.7116161,74.1508703 85.1620444,71.1903104 85.6192099,68.2422543 C86.0754131,65.2999695 86.5056298,62.398082 86.9156351,59.5385157 C87.3266028,56.6779878 87.7000348,53.9415376 88.0359312,51.3291657 L91.3236731,51.1800796 L86.7443183,77.5856201 L86.8973485,77.6827663 C87.1475864,76.8478846 87.449797,75.8831537 87.8116795,74.7953067 C88.175487,73.7074597 88.6365024,72.6821324 89.2120497,71.707783 C89.7770101,70.7392048 90.4824885,69.9187508 91.3236731,69.2493064 C92.1571581,68.5789002 93.1629223,68.2422543 94.3294161,68.2422543 C96.3765553,68.2422543 97.9049319,69.2646958 98.9270577,71.3057318 C99.1917324,71.8434033 99.3187763,72.480145 99.303377,73.214033 C99.2870154,73.9527302 99.1840328,74.7289394 99.0146409,75.5474697 C98.838512,76.3688857 98.6258096,77.1979963 98.3707594,78.0328781 C98.1205213,78.8696836 97.897232,79.6805192 97.7057039,80.4634614 C97.5132131,81.25506 97.3957937,81.9889481 97.3476711,82.6776293 C97.3101354,83.3643869 97.4054184,83.9395704 97.6421819,84.4079892 C97.8231233,84.7782995 98.0926103,85.0851283 98.431394,85.3380936 C98.7740275,85.5862497 99.1301354,85.7112895 99.4958678,85.7112895 C100.269681,85.7112895 100.992483,85.4689045 101.668126,84.9850963 C102.350506,84.5022501 102.984763,83.8664701 103.577634,83.078719 C104.175318,82.2919293 104.312949,82.038964 105.527565,82.2784635" id="Fill-25"></path>
                    <path d="M105.714859,75.7152155 C107.220136,71.7956959 107.36258,69.5671001 107.539671,66.0284711 C107.7158,62.5658278 107.837069,59.0887568 107.419364,55.3856522 C107.181638,53.4225259 107.189338,52.0836371 107.419364,51.3728335 C107.634954,50.661068 108.195102,50.299414 109.087297,50.299414 C109.711929,50.299414 110.349073,50.5225621 110.99103,50.9688583 C111.646461,51.4151547 112.119988,51.9509024 112.430861,52.5789876 C112.883214,53.4667708 112.97561,54.3064617 112.713822,55.082671 C112.460697,55.8656131 112.198909,56.5696839 111.926535,57.1919978 C110.768703,60.2246961 109.708079,63.3035631 108.928492,66.5286306 C108.13158,69.8325695 107.568545,72.9527958 106.283669,76.0585943 L105.714859,75.7152155 Z M107.300983,81.5526549 C108.034372,82.0422343 108.568534,82.6212651 108.905393,83.288786 C109.236477,83.9553448 109.285562,84.5401468 109.039174,85.0287641 C108.793748,85.5173815 108.337545,85.7636139 107.66479,85.7636139 C107.000697,85.7636139 106.291368,85.5173815 105.557979,85.0287641 C104.820739,84.5401468 104.28369,83.9553448 103.952606,83.288786 C103.618635,82.6212651 103.575324,82.0422343 103.817863,81.5526549 C104.063288,81.0601902 104.524304,80.8149196 105.192246,80.8149196 C105.864039,80.8149196 106.563743,81.0601902 107.300983,81.5526549 Z" id="Fill-26"></path>
                </g>
            </g>
        </g>
    </g>
</svg>