<?xml version="1.0" encoding="UTF-8"?>
<svg width="32px" height="32px" viewBox="0 0 32 32" version="1.1" xmlns="http://www.w3.org/2000/svg" xmlns:xlink="http://www.w3.org/1999/xlink">
    <!-- Generator: Sketch 49.1 (51147) - http://www.bohemiancoding.com/sketch -->
    <title>Group 3</title>
    <desc>Created with Sketch.</desc>
    <defs></defs>
    <g id="Page-1" stroke="none" stroke-width="1" fill="none" fill-rule="evenodd">
        <g id="New-Hotspot-promociones-popup" transform="translate(-831.000000, -622.000000)">
            <g id="Group-3" transform="translate(831.000000, 622.000000)">
                <rect id="Rectangle-9" fill="#5A4881" x="0" y="0" width="32" height="32"></rect>
                <path d="M19.8095238,15.4513842 C20.0524684,15.3430041 20.2388788,15.1984972 20.3952394,15.0351638 C22.012833,13.2883608 19.2462182,11.7420357 20.1309034,10.0196565 C20.912197,8.65243847 22.2155415,9.04525289 22.4651073,9.14447411 C22.0204728,9.38209635 21.5157387,9.7591371 21.3894279,10.5264482 C21.189266,11.894175 22.8139901,13.1077273 22.1299761,14.5237927 C21.9313421,15.0107401 21.189266,15.8905019 19.8095238,15.4513842" id="Fill-2" fill="#FFFFFF" fill-rule="nonzero"></path>
                <path d="M24.2539683,15.4513842 C24.4902918,15.3430041 24.6802673,15.1984972 24.8376465,15.0351638 C26.4557495,13.2883608 23.6850601,11.7420357 24.5722919,10.0196565 C25.351039,8.65243847 26.6554021,9.04525289 26.9049679,9.14447411 C26.461352,9.38209635 25.9561087,9.7591371 25.8272512,10.5264482 C25.6311638,11.894175 27.2563972,13.1077273 26.5723833,14.5237927 C26.3706934,15.0107401 25.6275986,15.8905019 24.2539683,15.4513842" id="Fill-4" fill="#FFFFFF" fill-rule="nonzero"></path>
                <path d="M22.031746,15.4513842 C22.2716348,15.3430041 22.4621197,15.1984972 22.6184803,15.0351638 C24.2340367,13.2883608 21.4674218,11.7420357 22.3531257,10.0196565 C23.1344193,8.65243847 24.4367452,9.04525289 24.6873296,9.14447411 C24.2437137,9.38209635 23.7369424,9.7591371 23.6085942,10.5264482 C23.4145441,11.894175 25.0362123,13.1077273 24.3552543,14.5237927 C24.1545831,15.0107401 23.4109789,15.8905019 22.031746,15.4513842" id="Fill-6" fill="#FFFFFF" fill-rule="nonzero"></path>
                <path d="M17.9047619,18.7563262 C18.1207127,18.9084654 18.3371728,19.0025984 18.5622913,19.0534811 C20.8822343,19.580117 20.838433,16.4141957 22.7753689,16.3175186 C24.3506892,16.307342 24.6613731,17.6328363 24.699572,17.8989528 C24.2742915,17.6328363 23.6931598,17.383511 22.9653445,17.6587864 C21.6772796,18.1696487 21.4389188,20.1835858 19.8722569,20.3001071 C19.3466409,20.3723606 18.2128992,20.1698475 17.9047619,18.7563262" id="Fill-8" fill="#FFFFFF" fill-rule="nonzero"></path>
                <path d="M20.1269841,22.8848071 C20.3388604,23.0354199 20.5604136,23.1275176 20.780439,23.1799268 C23.1054752,23.7101245 23.0606552,20.5411502 24.9945352,20.4444731 C26.5713834,20.4373495 26.883086,21.7597908 26.9207755,22.0304867 C26.4944764,21.7597908 25.9118168,21.5130097 25.1850201,21.7867586 C23.8989925,22.300165 23.6621596,24.3100315 22.0924419,24.4265528 C21.5688631,24.4982974 20.4310469,24.2952755 20.1269841,22.8848071" id="Fill-10" fill="#FFFFFF" fill-rule="nonzero"></path>
                <path d="M18.8571429,20.9820892 C19.0705471,21.1337197 19.2885351,21.2232732 19.5105977,21.2787353 C21.8346153,21.8074066 21.7897953,18.6379235 23.7267312,18.5397198 C25.3020515,18.5315786 25.615282,19.8585993 25.6509343,20.1247158 C25.2256538,19.8585993 24.6429941,19.6072388 23.9141602,19.8804788 C22.6311885,20.3938853 22.3912997,22.4078223 20.8236192,22.5253614 C20.2980032,22.5955795 19.1642616,22.3951017 18.8571429,20.9820892" id="Fill-12" fill="#FFFFFF" fill-rule="nonzero"></path>
                <path d="M14.163929,18.8571429 C14.1364258,19.1181711 14.1659662,19.3568109 14.2316683,19.5750977 C14.9345269,21.8444659 17.6563218,20.2248697 18.7111192,21.8485365 C19.5076923,23.2101574 18.5094292,24.1428373 18.2995903,24.3087149 C18.3189444,23.8080291 18.243056,23.1786101 17.6425702,22.6855569 C16.5531392,21.8276746 14.6931103,22.629077 13.8038412,21.3300418 C13.4799151,20.9107684 13.0918148,19.8295111 14.163929,18.8571429" id="Fill-14" fill="#FFFFFF" fill-rule="nonzero"></path>
                <path d="M11.6193975,22.984127 C11.5974968,23.2431199 11.6260186,23.4781979 11.6922299,23.6990288 C12.3935606,25.9719589 15.120958,24.3467656 16.1706621,25.9734853 C16.9677447,27.3351063 15.9735562,28.2647331 15.7616799,28.4306107 C15.7769594,27.9324691 15.704127,27.303559 15.1026226,26.8099968 C14.0152288,25.9566941 12.1531626,26.7535171 11.2664402,25.4544819 C10.9430233,25.0372437 10.5503392,23.9534423 11.6193975,22.984127" id="Fill-16" fill="#FFFFFF" fill-rule="nonzero"></path>
                <path d="M12.8911593,20.7619048 C12.8651841,21.0214065 12.8931966,21.2585199 12.9568613,21.4732448 C13.6648132,23.7451572 16.389664,22.125561 17.4403868,23.7532984 C18.2349227,25.1113575 17.2417528,26.0435286 17.0293672,26.2114415 C17.0487213,25.7082116 16.9733423,25.0813367 16.3718378,24.586757 C15.2844441,23.7304012 13.419322,24.5297683 12.538202,23.2317508 C12.2132572,22.8109509 11.8185358,21.7281671 12.8911593,20.7619048" id="Fill-18" fill="#FFFFFF" fill-rule="nonzero"></path>
                <path d="M11.9894262,15.4845082 C11.7510654,15.5933971 11.5590525,15.737904 11.4032012,15.9002198 C9.78306104,17.6485492 12.5542597,19.195892 11.6705931,20.9172536 C10.8898088,22.2870157 9.58595501,21.8916572 9.33333333,21.7888741 C9.77745856,21.5558314 10.2852485,21.1742112 10.412578,20.4114796 C10.609684,19.0412086 8.98597853,17.8302004 9.66693657,16.4151527 C9.86709848,15.9266788 10.6117212,15.0443729 11.9894262,15.4845082" id="Fill-20" fill="#FFFFFF" fill-rule="nonzero"></path>
                <path d="M7.54498171,15.4845082 C7.30763958,15.5933971 7.11460809,15.737904 6.95875681,15.9002198 C5.34269113,17.6485492 8.1108339,19.195892 7.22971394,20.9172536 C6.44740165,22.2870157 5.13998261,21.8916572 4.88888889,21.7888741 C5.33505137,21.5558314 5.84080404,21.1742112 5.96915214,20.4114796 C6.16880476,19.0412086 4.54357136,17.8302004 5.22249211,16.4151527 C5.42520063,15.9266788 6.16880476,15.0443729 7.54498171,15.4845082" id="Fill-22" fill="#FFFFFF" fill-rule="nonzero"></path>
                <path d="M9.76363874,15.4845082 C9.52476862,15.5933971 9.336321,15.737904 9.18097904,15.9002198 C7.5603295,17.6485492 10.3315282,19.195892 9.44378707,20.9172536 C8.66402137,22.2870157 7.36016756,21.8916572 7.11111111,21.7888741 C7.55370836,21.5558314 8.06047967,21.1742112 8.18780915,20.4114796 C8.38746176,19.0412086 6.76019108,17.8302004 7.44522365,16.4151527 C7.64742286,15.9266788 8.3884804,15.0443729 9.76363874,15.4845082" id="Fill-24" fill="#FFFFFF" fill-rule="nonzero"></path>
                <path d="M13.9038839,12.1610012 C13.6914983,12.0093708 13.471473,11.9152378 13.2489011,11.8623198 C10.9274301,11.3341574 10.9722501,14.5036405 9.03582344,14.6003177 C7.45693796,14.6094765 7.14981927,13.2824558 7.11111111,13.0163393 C7.53842882,13.2824558 8.11599532,13.5307634 8.84381059,13.2575233 C10.1344221,12.7451346 10.3707456,10.7337416 11.9389354,10.6146761 C12.4645515,10.5464933 13.5977838,10.7469711 13.9038839,12.1610012" id="Fill-26" fill="#FFFFFF" fill-rule="nonzero"></path>
                <path d="M11.6847176,8.03035472 C11.4697854,7.88025074 11.2477228,7.78764423 11.0271882,7.73523506 C8.70724515,7.20707268 8.75002786,10.3775734 6.81156394,10.4737418 C5.23675301,10.4803565 4.92555978,9.15384462 4.88888889,8.88772815 C5.31416933,9.15384462 5.89784764,9.40418747 6.6251536,9.13094739 C7.90761606,8.61855867 8.14852342,6.60716571 9.71467595,6.48962668 C10.2413107,6.41432029 11.3725057,6.61988638 11.6847176,8.03035472" id="Fill-28" fill="#FFFFFF" fill-rule="nonzero"></path>
                <path d="M12.9515029,10.254878 C12.7380987,10.1017211 12.5180734,10.0106411 12.299576,9.95772304 C9.97403053,9.42956071 10.0188505,12.5975173 8.08242385,12.6931768 C6.50455701,12.7018268 6.19641968,11.3773502 6.15873016,11.1117426 C6.58299197,11.3773502 7.16667027,11.6271843 7.89448555,11.3524178 C9.18102255,10.8405379 9.41734605,8.82558308 10.9870638,8.71058819 C11.5111519,8.63986126 12.6454029,8.8423744 12.9515029,10.254878" id="Fill-30" fill="#FFFFFF" fill-rule="nonzero"></path>
                <path d="M17.6779729,12.2431875 C17.7049667,11.9811416 17.6749169,11.7455547 17.6112522,11.5282856 C16.9053376,9.25484676 14.1794682,10.8780048 13.1297641,9.25179381 C12.3331908,7.88915522 13.3273794,6.95952838 13.5423115,6.79365079 C13.5214295,7.29738948 13.5968085,7.92273781 14.1978037,8.41629995 C15.286216,9.27214688 17.1472636,8.47430622 18.0329674,9.77028848 C18.3568936,10.1905795 18.7505963,11.2708192 17.6779729,12.2431875" id="Fill-32" fill="#FFFFFF" fill-rule="nonzero"></path>
                <path d="M20.2192151,8.11365923 C20.2441716,7.85415747 20.2141219,7.61704409 20.1489292,7.40079268 C19.4460705,5.12786265 16.7196918,6.75203829 15.668969,5.1212479 C14.8723958,3.76369758 15.8696402,2.83203543 16.0799885,2.66666667 C16.0636903,3.16786122 16.1380508,3.79524485 16.7380272,4.288807 C17.8249116,5.14312746 19.6885058,4.34579562 20.5752282,5.64177787 C20.8981358,6.06308659 21.2898013,7.14536153 20.2192151,8.11365923" id="Fill-34" fill="#FFFFFF" fill-rule="nonzero"></path>
                <path d="M18.9513923,10.3404609 C18.9722744,10.0804503 18.9432433,9.84384578 18.8795785,9.62708552 C18.1777385,7.35110253 15.4508504,8.97476933 14.399109,7.34804957 C13.6030451,5.9894816 14.5987616,5.0552753 14.8086006,4.88888889 C14.7907744,5.3911011 14.8661535,6.02102886 15.4666393,6.51357336 C16.5550516,7.3694203 18.4171179,6.56801784 19.3038403,7.86654425 C19.6292945,8.28632646 20.0199413,9.36707491 18.9513923,10.3404609" id="Fill-36" fill="#FFFFFF" fill-rule="nonzero"></path>
            </g>
        </g>
    </g>
</svg>